<svg width="1440" height="181" viewBox="0 0 1440 181" fill="none" xmlns="http://www.w3.org/2000/svg">
<path d="M278.055 104C271.038 92.8372 266.548 91.1628 259.788 104C262.233 91.4419 259.788 90.7442 249 87.9535C260.651 90.3256 263.384 85.5814 259.788 74C265.973 84.4651 269.425 85.8605 280.212 74C272.014 87.9535 280.212 87.9535 291 94.6512C278.055 90.7442 272.014 90.7442 278.055 104Z" fill="white"/>
<path d="M465.981 111.915C455.497 94.72 448.787 92.1408 438.686 111.915C442.34 92.5706 438.686 91.496 422.567 87.1973C439.976 90.8512 444.059 83.5433 438.686 65.7037C447.928 81.8239 453.086 83.9732 469.204 65.7037C456.954 87.1973 469.204 87.1973 485.323 97.5142C465.981 91.496 456.954 91.496 465.981 111.915Z" fill="white"/>
<path d="M459.197 98.7932C454.622 91.3633 449.225 90.2488 444.817 98.7932C446.411 90.4345 441.394 92.2323 438.114 89.9503C445.71 91.5291 447.162 86.5339 444.817 78.8254C448.85 85.7909 453.57 86.7196 460.604 78.8254C455.258 88.1127 460.604 86.4012 467.637 90.8591C459.197 88.2587 455.258 89.9702 459.197 98.7932Z" fill="#BFF91B"/>
<path d="M451.235 106.352C450.665 109.062 449.866 119.474 451.235 124.609C453.375 119.331 451.235 109.205 451.235 106.352Z" fill="#2B2B2B"/>
<path d="M470.633 102.216C471.346 104.688 473.97 109.947 478.762 111.202C476.709 107.322 472.487 103.595 470.633 102.216Z" fill="#2B2B2B"/>
<path d="M475.767 79.9664C478.667 79.5385 485.209 78.1122 488.176 75.8302C482.699 77.0853 477.621 79.1106 475.767 79.9664Z" fill="#2B2B2B"/>
<path d="M454.088 69.8399C455.419 66.9398 457.682 59.9701 456.085 55.2919C454.487 59.856 454.088 66.8922 454.088 69.8399Z" fill="#2B2B2B"/>
<path d="M434.833 78.5401C433.407 75.64 429.071 69.8399 423.138 69.8399C425.876 73.4911 432.076 77.1614 434.833 78.5401Z" fill="#2B2B2B"/>
<path d="M431.125 100.79C428.177 101.028 421.826 102.473 420 106.352C423.994 106.352 429.081 102.644 431.125 100.79Z" fill="#2B2B2B"/>
<path d="M659.215 135.723C645.569 113.318 627.707 96.3428 614.559 122.109C619.315 96.9029 596.849 94.7252 575.868 89.124C598.527 93.8851 621.553 85.1403 614.559 61.895C626.588 82.8998 643.325 75.4065 664.307 51.6011C648.361 79.6075 654.283 89.9014 675.265 103.344C650.087 95.5026 647.465 109.117 659.215 135.723Z" fill="white"/>
<path d="M646.265 113.364C640.33 103.727 624.2 97.9645 618.482 109.048C620.55 98.2055 610.783 95.4047 606.528 92.4446C616.382 94.4926 621.523 82.1878 618.482 72.1889C623.713 81.224 639.354 82.4287 648.478 72.1889C641.544 84.2357 652.305 92.4178 661.429 98.2003C650.48 94.8272 641.155 101.92 646.265 113.364Z" fill="#BFF91B"/>
<path d="M639.218 101.742C636.634 97.5453 629.609 95.0359 627.119 99.8624C628.02 95.1408 623.767 93.9211 621.913 92.6321C626.205 93.5239 628.444 88.1654 627.119 83.811C629.397 87.7457 636.209 88.2703 640.182 83.811C637.162 89.0572 641.848 92.6204 645.822 95.1386C641.054 93.6696 636.993 96.7584 639.218 101.742Z" fill="#2B2B2B"/>
<path d="M630.436 133.941C629.593 137.937 628.413 155.27 630.436 162.841C633.597 155.06 630.436 138.147 630.436 133.941Z" fill="black" fill-opacity="0.2"/>
<path d="M676.039 128.086C677.093 131.731 680.97 139.484 688.051 141.335C685.016 135.615 678.779 130.119 676.039 128.086Z" fill="black" fill-opacity="0.2"/>
<path d="M678.585 74.7346C682.87 74.1037 699.287 70.1079 703.67 66.743C695.578 68.5937 681.325 73.4728 678.585 74.7346Z" fill="black" fill-opacity="0.2"/>
<path d="M635.417 54.014C637.384 49.7378 640.434 23.1899 638.074 16.2919C635.714 23.0216 635.417 49.6677 635.417 54.014Z" fill="black" fill-opacity="0.2"/>
<path d="M595.016 71.0266C592.908 66.7504 579.21 54.014 570.444 54.014C574.49 59.3978 590.942 68.9937 595.016 71.0266Z" fill="black" fill-opacity="0.2"/>
<path d="M589.15 119.784C584.795 120.135 558.697 132.427 556 138.147C561.9 138.147 586.13 122.518 589.15 119.784Z" fill="black" fill-opacity="0.2"/>
<path d="M792.946 140.839C790.737 144.274 789.957 143.301 789.156 151.097C794.877 144.948 791.45 144.77 792.946 140.839Z" fill="#2B2B2B"/>
<path d="M844.137 134.826C843.825 138.608 844.544 140.244 850.503 144.492C849.701 138.066 845.974 137.701 844.137 134.826Z" fill="#2B2B2B"/>
<path d="M865.485 85.8667C869.715 86.8005 873.325 87.4533 878.618 85.8667C870.397 84.7194 868.495 85.6613 865.485 85.8667Z" fill="#2B2B2B"/>
<path d="M841.759 52.6875C845.117 49.39 847.932 45.8506 848.179 38.5642C843.58 44.015 843.304 48.6252 841.759 52.6875Z" fill="#2B2B2B"/>
<path d="M788.695 52.6875C788.246 47.9415 788.299 41.681 780.106 38.5642C781.973 45.0347 785.61 49.3389 788.695 52.6875Z" fill="#2B2B2B"/>
<path d="M753.039 102.647C748.844 101.426 742.268 100.921 737.713 105.308C743.228 107.406 746.619 107.19 753.039 102.647Z" fill="#2B2B2B"/>
<path d="M779.553 122.354C754.139 131.209 755.46 111.359 759.297 100.328C739.041 78.3009 774.572 50.0757 793.389 62.4726C794.274 31.1482 829.362 41.7742 840.32 57.4917C874.854 51.9574 869.32 100.328 845.854 103.095C863.343 139.954 827.037 137.518 811.873 132.98C801.801 143.606 779.553 136.19 779.553 122.354Z" fill="#BFF91B"/>
<path d="M779.553 122.354C759.297 124.125 755.46 111.359 759.297 100.328C739.041 78.3008 774.572 50.0756 793.389 62.4726C794.274 31.1482 829.362 41.7741 840.32 57.4917C868.434 57.4917 866.774 97.2283 845.854 103.095C855.595 130.545 827.037 137.518 811.873 132.98C802.354 138.957 784.976 134.419 779.553 122.354Z" fill="#2B2B2B"/>
<path d="M779.553 122.354C759.297 124.125 755.46 111.359 759.297 100.328C747.564 80.2932 772.579 53.2856 793.389 62.4726C798.923 38.1215 831.244 46.8657 840.32 57.4917C868.434 57.4917 866.774 97.2283 845.854 103.095C855.595 130.545 827.037 137.518 811.873 132.98C802.354 138.957 784.976 134.419 779.553 122.354Z" fill="#BFF91B" fill-opacity="0.3"/>
<path d="M785.198 84.61C779.885 72.9878 792.503 50.9611 817.74 70.2207C805.343 63.8447 785.198 66.3466 785.198 84.61Z" fill="#2B2B2B"/>
<path d="M775.977 113.844C763.2 114.078 748.038 93.7189 775.768 78.2637C764.975 87.0867 759.231 106.557 775.977 113.844Z" fill="#2B2B2B"/>
<path d="M823.823 63.2484C827.928 56.2323 844.006 54.7412 843.215 74.9189C841.998 66.1355 833.327 56.5677 823.823 63.2484Z" fill="#2B2B2B"/>
<path d="M808.319 91.5798C807.36 81.3086 822.063 67.1694 835.616 88.0485C828.186 80.1873 812.891 77.3997 808.319 91.5798Z" fill="#2B2B2B"/>
<path d="M823.253 118.354C823.828 128.654 808.608 142.235 795.843 120.865C802.975 128.998 818.155 132.354 823.253 118.354Z" fill="#BFF91B"/>
<path d="M838.109 84.4157C847.533 88.6101 852.66 108.353 827.819 109.945C838.312 107.317 848.232 95.347 838.109 84.4157Z" fill="#BFF91B"/>
<path fill-rule="evenodd" clip-rule="evenodd" d="M989.79 141.022C999 143.775 1019.08 141.022 1016.01 128.214C1024.12 130.882 1036.63 121.433 1030.79 104.999C1037.52 103.115 1046.38 100.801 1042.28 90.7423C1051.14 84.3936 1049.14 76.6524 1040.45 71.3783C1045.78 59.3881 1037.26 50.0317 1024.12 50.0317C1017.24 41.9956 996.773 33.2213 989.79 50.0317C980.746 42.0268 969.973 45.1001 967.485 56.0354C957.983 51.8447 943.77 56.0354 943.77 64.6802C932.923 60.9168 926.348 71.3783 931.462 79.7835C915.434 82.9855 922.085 94.3921 926.348 101.664C923.816 108.938 926.348 116.206 936.804 116.206C933.599 125.145 939.719 129.181 950.79 128.214C953.389 133.989 958.04 141.022 967.485 135.418C971.396 143.823 982.865 145.365 989.79 141.022ZM976.518 107.737C976.518 99.3018 973.877 98.0039 966.297 98.0039C975.419 94.6286 976.2 87.5495 974.231 78.9839C981.085 84.9475 988.116 80.888 994.61 76.6524C993.247 85.6 995.682 86.9283 1000.98 89.0313C988.69 90.2121 990.812 97.2222 994.603 102.29C984.902 94.69 977.198 102.757 976.518 107.737Z" fill="#BFF91B"/>
<path fill-rule="evenodd" clip-rule="evenodd" d="M989.79 141.021C995.664 142.441 1015.51 139.581 1016.01 128.214C1022.09 129.215 1034.17 119.411 1030.79 104.999C1034.5 103.293 1043.18 100.991 1042.28 90.7422C1048.13 84.5137 1046.18 76.7698 1040.45 71.3782C1045.78 59.388 1037.26 50.0316 1024.12 50.0316C1017.24 41.9955 996.773 33.2212 989.79 50.0316C980.746 42.0267 969.973 45.1 967.485 56.0353C957.983 51.8446 943.77 56.0353 943.77 64.6801C932.923 60.9167 926.348 71.3782 931.462 79.7835C915.434 82.9854 922.085 94.392 926.348 101.664C923.816 108.938 926.348 116.206 936.804 116.206C933.599 125.145 939.719 129.18 950.79 128.214C953.129 131.644 957.712 138.07 967.485 135.418C971.382 141.504 982.852 143.104 989.79 141.021ZM976.518 107.737C976.518 99.3017 973.877 98.0038 966.297 98.0038C972.921 92.6279 974.491 86.1806 974.231 78.9838C981.139 82.2817 988.167 78.4143 994.61 76.6523C993.247 85.5999 995.682 86.9282 1000.98 89.0312C988.69 90.212 990.812 97.2221 994.603 102.29C984.902 94.6899 977.198 102.756 976.518 107.737Z" fill="#2A2A2A"/>
<path fill-rule="evenodd" clip-rule="evenodd" d="M989.79 141.021C995.664 142.441 1015.51 139.581 1016.01 128.214C1022.09 129.215 1034.17 119.411 1030.79 104.999C1034.5 103.293 1043.18 100.991 1042.28 90.7422C1048.13 84.5137 1046.18 76.7697 1040.45 71.3782C1041.6 60.369 1033.76 50.8522 1024.12 50.0316C1019.04 47.4272 998.284 37.7815 989.79 50.0316C982.067 48.1516 971.116 50.3967 967.485 56.0353C959.989 55.5433 945.498 59.2209 943.77 64.6801C936.062 63.7375 929.756 74.4398 931.462 79.7834C918.788 85.5287 925.244 96.7871 926.348 101.664C923.816 108.938 926.348 116.206 936.804 116.206C933.599 125.145 939.719 129.18 950.79 128.214C953.129 131.644 957.712 138.07 967.485 135.418C971.382 141.504 982.852 143.104 989.79 141.021ZM976.518 107.737C974.765 101.192 972.077 99.9446 966.297 98.0038C972.921 92.6279 974.491 86.1806 974.231 78.9838C981.139 82.2817 988.167 78.4143 994.61 76.6523C995.682 82.9435 996.9 85.8213 1000.98 89.0312C995.572 91.9091 993.69 97.0007 994.603 102.29C984.344 100.366 976.758 107.797 976.518 107.737Z" fill="#576825"/>
<path d="M972.225 134.032C970.334 136.975 965.42 147.997 964.734 154.674C969.634 149.407 970.945 137.4 972.225 134.032Z" fill="#2B2B2B"/>
<path d="M1016.07 128.883C1019.53 137.882 1019.53 142.86 1027.15 148.953C1021.2 138.477 1017.65 131.344 1016.07 128.883Z" fill="#2B2B2B"/>
<path d="M1034.36 86.9471C1037.98 87.7469 1062.29 88.3061 1066.82 86.9471C1059.78 85.9644 1036.94 86.7712 1034.36 86.9471Z" fill="#2B2B2B"/>
<path d="M1014.04 58.5281C1016.91 55.7037 1019.94 49.8367 1026.4 35.4224C1022.46 40.0913 1015.36 55.0486 1014.04 58.5281Z" fill="#2B2B2B"/>
<path d="M968.585 58.5281C968.2 54.463 962.802 44.5613 953.291 30.9644C954.891 36.5066 965.942 55.6599 968.585 58.5281Z" fill="#2B2B2B"/>
<path d="M938.044 101.32C927.584 102.813 919.931 103.184 910.792 106.008C920.897 106.008 927.584 104.893 938.044 101.32Z" fill="#2B2B2B"/>
<path d="M961.601 71.8748C957.139 63.6857 967.736 48.1654 988.931 61.7359C978.519 57.2433 961.601 59.0062 961.601 71.8748Z" fill="#2B2B2B"/>
<path d="M960.544 106.523C953.92 107.146 944.589 97.9131 957.899 89.3369C952.919 94.0317 951.321 103.67 960.544 106.523Z" fill="#2B2B2B"/>
<path d="M935.07 90.8291C929.393 86.4971 928.178 72.5085 944.499 75.5023C937.395 75.5407 929.661 81.8952 935.07 90.8291Z" fill="#2B2B2B"/>
<path d="M949.622 117.94C943.305 121.27 930.102 116.492 939.679 102.942C936.728 109.403 939.243 119.092 949.622 117.94Z" fill="#2B2B2B"/>
<path d="M1008.19 55.162C1012.29 48.1459 1028.37 46.6548 1027.58 66.8325C1026.36 58.0491 1017.69 48.4813 1008.19 55.162Z" fill="#2B2B2B"/>
<path d="M997.584 61.7012C1002.07 56.8288 1015.13 57.6196 1011 72.955C1011.55 66.092 1006.31 57.7338 997.584 61.7012Z" fill="#2B2B2B"/>
<path d="M995.086 133.485C997.099 138.374 988.768 145.315 976.635 135.531C982.816 139.184 993.779 140.312 995.086 133.485Z" fill="#BFF91B"/>
<path d="M1007.58 105.681C1011.1 109.625 1005.54 118.937 990.851 113.731C997.893 115.127 1008.61 112.555 1007.58 105.681Z" fill="#BFF91B"/>
<path d="M1014.33 75.0632C1019.56 74.2985 1024.27 84.0666 1011.83 93.458C1016.88 88.3504 1020.63 77.9895 1014.33 75.0632Z" fill="#BFF91B"/>
<path d="M1025.82 89.7621C1033.19 92.3838 1035.8 107.878 1015.35 111.157C1024.15 108.196 1033.22 97.7554 1025.82 89.7621Z" fill="#BFF91B"/>
<path d="M1196.01 124.214C1198.43 136.992 1177.97 139.559 1169.79 137.022C1161.46 141.142 1150.15 139.295 1147.49 131.418C1137.12 136.465 1132.69 129.424 1130.79 124.214C1119.72 125.181 1113.6 121.145 1116.8 112.206C1110.5 117.684 1095.67 106.615 1106.4 97.5391C1104.97 94.004 1107.19 90.687 1117.81 92.7795C1123.25 88.2583 1127.67 88.4006 1132.86 94.1078C1135.85 92.5582 1142.78 93.8795 1143.6 101.745C1148.09 101.185 1153.46 106.822 1155.22 113.367C1159.67 103.634 1166.6 105.311 1171.93 107.722C1174.13 104.425 1181.56 99.4208 1186.65 106.505C1194.84 103.848 1198.93 107.734 1198.16 112.206C1203.37 118.57 1199.71 124.214 1196.01 124.214Z" fill="#BFF91B"/>
<path d="M1167.73 65.6612C1166.18 70.5315 1155.22 71.6383 1153 68.0963C1151.9 71.4169 1147.53 71.8597 1143.71 68.9818C1140.05 70.7528 1132.08 68.9818 1134.74 62.7834C1132.01 54.0327 1139.57 52.6499 1147.58 52.1574C1152.45 43.6345 1166.82 45.3098 1169.79 46.0318C1174.26 44.1879 1180.56 49.2795 1178.79 52.6002C1181.67 53.8177 1181.34 58.1345 1178.79 59.3521C1180.33 66.7626 1171.93 68.5391 1167.73 65.6612Z" fill="#BFF91B"/>
<path d="M1204.11 46.0318C1211.23 43.7452 1218.53 46.8444 1218.17 55.6994C1221.96 58.7986 1220.19 61.6765 1218.17 63.5582C1220.95 66.1661 1223.45 73.205 1219.53 74.2948C1218.17 77.6154 1213.77 76.5085 1212.44 74.9589C1209.23 76.3979 1203.48 75.7337 1202.15 69.4246C1196.84 68.0963 1193.85 64.5544 1195.95 61.6765C1194.29 60.1269 1192.26 56.3179 1196.73 53.9284C1194.62 50.0544 1200.19 44.0175 1204.11 46.0318Z" fill="#BFF91B"/>
<path d="M1196.01 124.214C1196.35 134.824 1176.06 137.567 1169.79 137.022C1163.71 138.976 1152.62 136.922 1147.49 131.418C1137.13 132.833 1132.69 126.858 1130.79 124.214C1119.72 125.181 1113.6 121.145 1116.8 112.206C1110.5 117.684 1095.67 106.615 1106.4 97.5391C1104.97 94.0039 1107.19 90.6869 1117.81 92.7795C1123.25 88.2583 1127.67 88.4005 1132.86 94.1078C1135.85 92.5581 1142.78 93.8795 1143.6 101.745C1148.09 101.185 1153.46 106.822 1155.22 113.367C1159.67 103.634 1166.6 105.311 1171.93 107.722C1174.13 104.425 1181.56 99.4207 1186.65 106.505C1194.84 103.848 1198.93 107.734 1198.16 112.206C1202.26 117.732 1198.76 123.488 1196.01 124.214Z" fill="#2B2B2B"/>
<path d="M1167.73 65.6612C1166.38 69.6737 1155.48 70.5486 1153 68.0963C1151.75 70.3121 1147.39 70.7711 1143.71 68.9818C1141.23 69.687 1133.75 67.4685 1134.74 62.7833C1132.01 54.0327 1139.57 52.6499 1147.58 52.1574C1152.45 43.6345 1166.82 45.3098 1169.79 46.0318C1174.26 44.1879 1180.56 49.2795 1178.79 52.6001C1180.43 54.1597 1180.27 58.428 1178.79 59.352C1178.99 65.6038 1170.81 67.5689 1167.73 65.6612Z" fill="#2B2B2B"/>
<path d="M1204.11 46.0318C1211.23 43.7451 1218.53 46.8444 1218.17 55.6993C1220.87 59.4076 1219.33 62.1579 1218.17 63.5581C1219.98 65.8104 1222.27 72.7693 1219.53 74.2948C1218.02 76.8147 1213.63 75.7728 1212.44 74.9589C1208.91 75.2113 1203.13 74.4329 1202.15 69.4245C1196.84 68.0963 1193.85 64.5543 1195.95 61.6764C1194.29 60.1268 1192.26 56.3178 1196.73 53.9284C1194.62 50.0543 1200.19 44.0174 1204.11 46.0318Z" fill="#2B2B2B"/>
<path d="M1196.01 124.214C1196.35 134.824 1176.06 137.567 1169.79 137.022C1163.71 138.976 1152.62 136.922 1147.49 131.418C1137.13 132.833 1132.69 126.858 1130.79 124.214C1119.72 125.181 1113.6 121.145 1116.8 112.206C1113.1 115.18 1098.47 103.922 1106.4 97.5391C1106.96 95.6713 1109.73 92.811 1117.81 92.7795C1123.12 90.4378 1127.5 91.214 1132.86 94.1078C1135.54 94.1898 1142.39 95.9215 1143.6 101.745C1148.09 101.185 1153.46 106.822 1155.22 113.367C1160.6 106.172 1167.42 107.542 1171.93 107.722C1173.21 106.829 1180.19 102.974 1186.65 106.505C1194.84 103.848 1198.93 107.734 1198.16 112.206C1202.26 117.732 1198.76 123.488 1196.01 124.214Z" fill="#576825"/>
<path d="M1167.73 65.6612C1166.38 69.6737 1155.48 70.5486 1153 68.0963C1151.75 70.3121 1147.39 70.7711 1143.71 68.9818C1141.23 69.687 1133.75 67.4685 1134.74 62.7833C1135 55.2901 1142.26 53.7831 1147.58 52.1574C1154.03 44.643 1168.87 46.6192 1169.79 46.0318C1174.26 44.1879 1180.56 49.2795 1178.79 52.6001C1180.43 54.1597 1180.27 58.428 1178.79 59.352C1178.99 65.6038 1170.81 67.5689 1167.73 65.6612Z" fill="#576825"/>
<path d="M1204.12 46.0318C1211.23 43.7451 1218.53 46.8444 1218.17 55.6993C1220.87 59.4076 1219.33 62.1579 1218.17 63.5581C1219.98 65.8104 1222.27 72.7693 1219.53 74.2948C1218.02 76.8147 1213.63 75.7728 1212.44 74.9589C1208.91 75.2113 1203.13 74.4329 1202.15 69.4245C1198.34 67.2828 1195.02 63.9213 1195.95 61.6764C1196.15 60.7973 1193.99 56.9377 1196.73 53.9284C1196.31 51.4563 1201.69 45.258 1204.12 46.0318Z" fill="#576825"/>
<path d="M1149.75 138.061C1147.94 140.876 1146.49 141.625 1145.83 148.014C1150.52 142.975 1148.52 141.283 1149.75 138.061Z" fill="black" fill-opacity="0.25"/>
<path d="M1197.24 130.951C1198.09 135.075 1202.36 140.549 1205.55 142.54C1204.49 138.843 1198.75 133.307 1197.24 130.951Z" fill="black" fill-opacity="0.25"/>
<path d="M1231.44 83.2073C1234.9 83.9726 1239.18 84.5077 1243.52 83.2073C1236.78 82.267 1233.9 83.039 1231.44 83.2073Z" fill="black" fill-opacity="0.25"/>
<path d="M1199.51 42.9336C1202.27 40.2309 1203.42 38.0279 1204.84 33.9043C1201.07 38.3718 1200.78 39.6041 1199.51 42.9336Z" fill="black" fill-opacity="0.25"/>
<path d="M1139.15 38.6678C1138.79 34.7779 1136.81 32.4113 1134.88 29.6385C1136.41 34.9417 1136.63 35.9232 1139.15 38.6678Z" fill="black" fill-opacity="0.25"/>
<path d="M1107.94 99.0287C1104.25 99.0287 1096.57 100.095 1094.21 101.446C1097.99 102.086 1103.96 101.446 1107.94 99.0287Z" fill="black" fill-opacity="0.25"/>
<path d="M1145.73 61.455C1143.12 56.6586 1149.33 47.5681 1161.75 55.5165C1155.65 52.8852 1145.73 53.9177 1145.73 61.455Z" fill="#2B2B2B"/>
<path d="M1168.24 51.8311C1172.05 49.4059 1180.64 51.5192 1175.34 60.3978C1176.85 56.2631 1174.73 50.4892 1168.24 51.8311Z" fill="#2B2B2B"/>
<path d="M1129.49 110.205C1133.17 104.659 1146.21 103.196 1144.53 118.939C1144 112.115 1137.5 104.819 1129.49 110.205Z" fill="#2B2B2B"/>
<path d="M1166.58 117.872C1165.91 112.657 1173.76 105.73 1181.49 116.512C1177.31 112.416 1168.88 110.765 1166.58 117.872Z" fill="#2B2B2B"/>
<path d="M1113.4 104.694C1112.1 97.6736 1120.57 86.4798 1130.67 99.6426C1125.38 94.9088 1115.38 94.439 1113.4 104.694Z" fill="#2B2B2B"/>
<path d="M1125.72 113.492C1121.74 115.588 1113.43 112.581 1119.46 104.052C1117.6 108.119 1119.18 114.217 1125.72 113.492Z" fill="#2B2B2B"/>
<path d="M1200.57 53.8295C1201.2 49.3437 1208.14 43.8434 1211.26 53.4508C1209.2 49.7355 1203.67 47.8849 1200.57 53.8295Z" fill="#2B2B2B"/>
<path d="M1199.94 66.4145C1196.89 63.063 1197.1 54.2098 1206.48 57.9518C1202.31 57.1587 1197.35 60.2274 1199.94 66.4145Z" fill="#2B2B2B"/>
<path d="M1208.49 59.8816C1208.98 56.8646 1214.72 54.713 1217.39 62.2957C1215.65 59.15 1211.03 56.453 1208.49 59.8816Z" fill="#2B2B2B"/>
<path d="M1175.09 129.485C1177.1 134.374 1168.77 141.315 1156.63 131.531C1162.82 135.184 1173.78 136.312 1175.09 129.485Z" fill="#BFF91B"/>
<path d="M1188.81 113.414C1192.33 117.358 1186.77 126.67 1172.08 121.464C1179.12 122.86 1189.84 120.288 1188.81 113.414Z" fill="#BFF91B"/>
<path d="M1217.36 69.6996C1216.96 71.9854 1212.93 74.1728 1211.21 68.8312C1212.37 70.9817 1215.53 72.5023 1217.36 69.6996Z" fill="#BFF91B"/>
<path d="M1210.64 62.3877C1212.73 64.7659 1211.07 70.8602 1203.52 68.0683C1207.02 68.7098 1211.86 66.7089 1210.64 62.3877Z" fill="#BFF91B"/>
<path d="M1169.16 57.296C1171.25 59.6743 1169.59 65.7685 1162.04 62.9767C1165.54 63.6182 1170.38 61.6173 1169.16 57.296Z" fill="#BFF91B"/>
<path d="M1155.16 117.746C1155.33 125.569 1141.77 133.504 1131.44 115.55C1137.33 122.722 1150.32 127.503 1155.16 117.746Z" fill="#BFF91B"/>
<path d="M1388.57 126.318C1391.33 140.837 1368.07 143.753 1358.77 140.871C1349.29 145.552 1336.44 143.454 1333.41 134.504C1321.62 140.238 1316.58 132.238 1314.42 126.318C1315.48 126.834 1316.62 127.681 1317.92 128.639C1321.51 131.293 1326.26 134.801 1333.41 134.504C1341.42 139.467 1353.54 142.088 1358.77 140.871C1362.85 140.765 1385.28 137.498 1388.57 126.318Z" fill="#2B2B2B"/>
<path d="M1388.57 126.318C1388.61 126.248 1388.67 126.157 1388.73 126.046L1388.73 126.045C1389.69 124.38 1393.21 118.3 1391.03 112.676C1396.94 119.906 1392.79 126.318 1388.57 126.318Z" fill="#2B2B2B"/>
<path d="M1298.25 112.899C1290.94 118.587 1274.64 106.195 1286.7 96.0109C1285.06 91.9944 1287.59 88.2256 1299.66 90.6032C1305.85 85.4663 1310.87 85.6279 1316.77 92.1123C1310.22 89.9802 1305.27 89.0424 1299.66 90.6032C1292.71 91.3811 1289.4 93.9397 1287.46 95.4364C1287.18 95.653 1286.93 95.8474 1286.7 96.0109C1280.92 101.884 1295.71 113.881 1298.25 112.899Z" fill="#2B2B2B"/>
<path d="M1328.98 100.79C1328.05 91.853 1320.17 90.3517 1316.77 92.1123C1317.74 92.3073 1324.82 94.3097 1328.98 100.79Z" fill="#2B2B2B"/>
<path d="M1342.2 113.995C1347.26 102.936 1355.14 104.841 1361.2 107.581C1363.7 103.835 1372.15 98.1489 1377.94 106.198C1373.14 105.113 1368.2 106.311 1364.91 107.11C1363.01 107.569 1361.67 107.897 1361.2 107.581C1360.06 107.969 1358.67 108.192 1357.08 108.448C1353.11 109.086 1347.88 109.926 1342.2 113.995Z" fill="#2B2B2B"/>
<path d="M1356.42 59.7919C1354.66 65.3252 1342.2 66.5828 1339.68 62.5585C1338.42 66.3313 1333.46 66.8343 1329.11 63.5646C1324.96 65.5767 1315.89 63.5646 1318.91 56.5219C1315.81 46.5796 1324.4 45.0085 1333.51 44.4489C1339.05 34.7652 1355.39 36.6687 1358.77 37.4891C1357.56 38.7637 1353.79 39.1937 1349.45 39.6886C1343.49 40.3681 1336.47 41.17 1333.51 44.4489C1332.75 44.8979 1331.86 45.3349 1330.91 45.8081C1327.03 47.7215 1321.95 50.2278 1318.91 56.5219C1318.71 59.0946 1323.59 61.1554 1326.8 62.5084C1327.8 62.9318 1328.64 63.2858 1329.11 63.5646C1332.81 64.2393 1337.69 63.4834 1339.68 62.5585C1341.98 63.3525 1354.39 62.4321 1356.42 59.7919Z" fill="#2B2B2B"/>
<path d="M1369 52.6233C1371.9 51.2399 1372.28 46.3353 1369 44.9519C1368.92 46.7303 1368.88 51.5791 1369 52.6233Z" fill="#2B2B2B"/>
<path fill-rule="evenodd" clip-rule="evenodd" d="M1356.42 59.7919C1361.2 63.0616 1370.75 61.0429 1369 52.6233ZM1356.42 59.7919C1358.9 59.7643 1368.21 57.5688 1369 52.6233Z" fill="#2B2B2B"/>
<path d="M1413.78 57.4023C1416.07 55.2643 1418.09 51.9945 1413.78 48.4732C1414.63 51.1548 1414.26 53.44 1413.97 55.1808C1413.82 56.0699 1413.7 56.8169 1413.78 57.4023Z" fill="#2B2B2B"/>
<path d="M1415.32 69.6011C1412.41 71.6208 1407.58 70.5466 1407.26 70.3556C1406.75 70.2405 1406.2 70.1291 1405.62 70.0128C1401.65 69.2152 1396.52 68.1829 1395.56 64.0676C1391.93 61.0136 1388.13 57.2091 1388.51 55.2643C1389.06 54.5507 1388.93 53.2237 1388.79 51.7414C1388.61 49.9357 1388.42 47.8996 1389.39 46.461C1391.08 45.3658 1393.99 41.8905 1395.91 39.6005L1395.91 39.6003C1396.93 38.3783 1397.67 37.4939 1397.79 37.4891C1393.33 35.2004 1387 42.0594 1389.39 46.461C1384.32 49.1759 1386.62 53.5036 1388.51 55.2643C1386.12 58.5341 1389.52 62.5585 1395.56 64.0676C1397.07 71.236 1403.61 71.9905 1407.26 70.3556C1408.77 72.1163 1413.78 73.3739 1415.32 69.6011Z" fill="#2B2B2B"/>
<path d="M1413.78 57.4023C1414.62 59.4398 1416.82 67.1699 1415.32 69.6011C1419.78 68.3628 1416.93 60.3654 1413.78 57.4023Z" fill="#2B2B2B"/>
<path d="M1388.54 126.355C1388.94 138.408 1365.85 141.524 1358.72 140.904C1351.8 143.124 1339.18 140.79 1333.34 134.539C1321.55 136.147 1316.51 129.358 1314.34 126.355C1314.34 126.355 1314.34 126.355 1314.34 126.355C1315.4 126.871 1316.54 127.717 1317.84 128.675C1321.44 131.328 1326.19 134.836 1333.34 134.539C1333.34 134.539 1333.34 134.539 1333.34 134.539C1341.36 139.501 1353.49 142.121 1358.72 140.904C1362.81 140.799 1385.25 137.532 1388.54 126.355Z" fill="#576825"/>
<path d="M1391 112.715C1395.66 118.992 1391.67 125.531 1388.54 126.355C1388.58 126.285 1388.64 126.193 1388.7 126.082L1388.7 126.082C1389.66 124.417 1393.19 118.339 1391 112.715Z" fill="#576825"/>
<path d="M1377.9 106.238C1373.1 105.154 1368.16 106.352 1364.86 107.15C1362.97 107.61 1361.62 107.937 1361.15 107.622C1360.02 108.009 1358.62 108.233 1357.03 108.489C1353.06 109.126 1347.83 109.966 1342.14 114.034C1342.14 114.034 1342.14 114.034 1342.14 114.034C1347.59 106.754 1354.34 107.193 1359.38 107.52C1360 107.561 1360.59 107.599 1361.15 107.622C1362.6 106.607 1370.55 102.228 1377.9 106.238Z" fill="#576825"/>
<path d="M1328.91 100.832C1324.75 94.3531 1317.66 92.3511 1316.7 92.1562C1319.75 92.2495 1327.54 94.2165 1328.91 100.832Z" fill="#576825"/>
<path d="M1316.7 92.1562C1310.14 90.0245 1305.18 89.0869 1299.57 90.6474C1292.62 91.4251 1289.3 93.9832 1287.36 95.4796C1287.08 95.6961 1286.83 95.8905 1286.6 96.054C1280.92 101.824 1295.11 113.505 1298.01 112.978C1293.23 115.324 1277.84 103.086 1286.6 96.054C1287.23 93.9323 1290.38 90.6832 1299.57 90.6474C1305.62 87.9873 1310.6 88.869 1316.7 92.1562Z" fill="#576825"/>
<path d="M1298.43 112.715C1298.43 112.715 1298.43 112.715 1298.43 112.715Z" fill="#576825"/>
<path d="M1356.37 59.8423C1354.84 64.4003 1342.43 65.3942 1339.62 62.6085C1338.19 65.1255 1333.22 65.6469 1329.04 63.6144C1326.22 64.4155 1317.71 61.8953 1318.84 56.5732C1319.11 48.7352 1326.13 46.6631 1331.97 44.9422C1332.47 44.7943 1332.97 44.6489 1333.45 44.5027C1339.18 37.8281 1350.76 37.7452 1356.03 37.7074C1357.51 37.6968 1358.49 37.6898 1358.72 37.5443C1357.5 38.8187 1353.73 39.2486 1349.39 39.7434C1343.43 40.4228 1336.4 41.2245 1333.45 44.5027C1332.68 44.9516 1331.8 45.3885 1330.84 45.8617C1326.96 47.7747 1321.87 50.2804 1318.84 56.5732C1318.63 59.1453 1323.52 61.2057 1326.73 62.5585C1327.73 62.9817 1328.57 63.3357 1329.04 63.6144C1332.74 64.289 1337.63 63.5332 1339.62 62.6085C1341.92 63.4024 1354.34 62.4822 1356.37 59.8423Z" fill="#576825"/>
<path d="M1356.37 59.8423C1359.88 62.0094 1369.19 59.7771 1368.96 52.6754C1368.17 57.62 1358.85 59.8147 1356.37 59.8423Z" fill="#576825"/>
<path d="M1368.96 52.6754C1370.65 51.6257 1370.82 46.7772 1368.96 45.0056C1368.88 46.7836 1368.83 51.6314 1368.96 52.6754Z" fill="#576825"/>
<path d="M1397.77 37.5443C1397.65 37.5492 1396.91 38.4335 1395.88 39.6554L1395.88 39.6558C1393.96 41.9453 1391.05 45.4195 1389.36 46.5144C1388.39 47.9527 1388.58 49.9884 1388.76 51.7937C1388.9 53.2757 1389.03 54.6024 1388.48 55.3159C1388.1 57.2603 1391.9 61.064 1395.53 64.1173C1396.5 68.2318 1401.63 69.2638 1405.6 70.0612C1406.18 70.1776 1406.73 70.2889 1407.25 70.404C1407.56 70.595 1412.4 71.6689 1415.31 69.6496C1416.8 67.219 1414.61 59.4905 1413.76 57.4534C1413.69 56.8681 1413.81 56.1213 1413.96 55.2324C1414.24 53.492 1414.62 51.2073 1413.76 48.5262C1416.83 52.7386 1415.08 55.8628 1413.76 57.4534C1415.82 60.0118 1418.43 67.9168 1415.31 69.6496C1413.59 72.5122 1408.6 71.3286 1407.25 70.404C1403.23 70.6907 1396.65 69.8066 1395.53 64.1173C1391.2 61.6843 1387.42 57.8659 1388.48 55.3159C1388.54 55.058 1388.42 54.5746 1388.26 53.9403C1387.81 52.1178 1387.05 49.0504 1389.36 46.5144C1388.9 43.7062 1395.01 36.6654 1397.77 37.5443Z" fill="#576825"/>
</svg>
