<svg width="139" height="266" viewBox="0 0 139 266" fill="none" xmlns="http://www.w3.org/2000/svg">
<g filter="url(#filter0_ii)">
<path d="M133.285 123.5C130.885 113.5 124.618 103.667 121.785 100C131.785 101.6 136.952 108.333 138.285 111.5C138.285 105 137.285 90.6 133.285 85C128.285 78 121.785 72.5 114.285 72.5C115.485 68.1 121.118 64.3333 123.785 63C120.618 63.1667 113.585 64.5 110.785 68.5C107.985 58.1 114.285 34.5 117.785 24C111.618 24.6667 97.4849 27.8 90.2849 35C83.0849 42.2 81.2849 50 81.2849 53C80.6183 49.8333 80.2849 41.3 84.2849 32.5C89.2849 21.5 82.2849 16 79.2849 0C76.285 13.5 72.7849 12.5 49.2849 32.5C30.4849 48.5 26.4516 63.1667 26.7849 68.5C25.9516 65.1667 25.2849 56.4 29.2849 48C9.78491 63 8.28492 78.5 8.28492 92C-2.91508 115.6 -0.381747 138.5 2.28492 147C2.61825 144.333 4.28492 136.4 8.28492 126C5.48492 135.2 4.78492 149.167 4.78492 155C6.11825 154.167 9.38492 151.4 11.7849 147C5.78492 167.5 10.7849 176.5 15.2849 182.5C13.6849 178.5 14.6183 171.833 15.2849 169C16.6183 173.5 21.7849 183.5 31.7849 187.5C41.7849 191.5 48.6183 201.167 50.7849 205.5C51.6183 203.833 53.2849 200.2 53.2849 199C54.2849 201.5 56.2849 203 60.2849 205.5C64.2849 208 64.7849 209 64.7849 213C64.7849 210 67.2849 207 70.2849 205.5C73.2849 204 74.7849 202.5 76.7849 199C75.7849 204 79.2849 205.5 79.2849 209C82.2849 199.5 86.2849 196 95.7849 191.5C103.385 187.9 108.952 178.667 110.785 174.5C111.952 176.167 114.285 180.1 114.285 182.5C123.285 172.5 121.785 152.5 117.785 147C120.785 148 121.785 150 123.785 152.5C123.785 146.5 125.285 136 121.785 123.5C130.185 130.3 132.952 139 133.285 142.5C134.285 140.333 135.685 133.5 133.285 123.5Z" fill="#08200A"/>
</g>
<g filter="url(#filter1_ii)">
<path d="M80.7849 150C82.1182 149.833 84.9849 149 85.7849 147C88.2849 150 89.7849 155 91.7849 157.5C93.7849 160 97.7849 164.5 96.2849 167C94.7849 169.5 93.7849 174 91.7849 174C87.7849 170.5 79.2849 164.5 67.2849 164.5C55.2849 164.5 43.7849 169.5 40.7849 172.5C38.3849 174.9 35.4516 169.833 34.2849 167C34.2849 165.5 34.7849 161.8 36.7849 159C39.2849 155.5 43.2849 150.5 44.7849 147C46.2849 148.5 48.2849 150 50.7849 150C49.7849 148 46.2849 145 47.7849 143.5C49.2849 142 54.2849 135.5 56.2849 135C57.2849 134.5 59.8849 134 62.2849 136C59.2849 133.5 56.7849 131 53.7849 133C50.7849 135 42.2849 144.5 35.2849 143.5C29.6849 142.7 27.2849 140.5 26.7849 139.5C26.6298 141.206 26.5902 144.846 27.5525 146.633C27.6312 146.756 27.7087 146.878 27.7849 147C27.7016 146.889 27.6243 146.766 27.5525 146.633C25.05 142.72 21.4525 138.18 26.7849 128C25.7849 125 22.7849 120.5 26.2849 115C23.8849 118.6 22.2849 119.833 21.7849 120C21.7849 117.667 21.8849 112.8 22.2849 112C27.7849 111 34.2849 108 65.2849 108.5C90.0849 108.9 104.285 112 108.285 113.5C108.618 115 109.285 118.5 109.285 120.5C107.785 118.5 107.785 117 103.785 115C104.785 117 107.285 121 103.785 128L103.832 128.063C105.357 130.094 108.754 134.619 105.785 146C105.785 143 104.785 139.5 103.285 139C102.785 141 102.285 144.5 96.2849 144C91.4849 143.6 81.2849 136.5 76.7849 133C75.2849 132.333 71.9849 131.4 70.7849 133C70.1113 133.898 69.5113 134.628 69.0555 135.155C70.0428 134.32 71.7016 133.607 73.7849 134.5C76.5849 135.7 80.6182 141 82.2849 143.5C83.1182 144.833 83.9849 148 80.7849 150Z" fill="#C4C4C4"/>
</g>
<path d="M71.2849 139.5C68.8849 139.5 68.6182 144.167 68.7849 146.5C71.2849 148 73.2849 147.5 75.2849 147.5C77.2849 147.5 77.2849 144.5 77.2849 143.5C77.2849 142.5 74.2849 139.5 71.2849 139.5Z" fill="#08200A"/>
<path d="M60.7849 139.5C63.1849 139.5 63.1183 144.167 62.7849 146.5C61.285 148 57.2849 147.5 55.7849 147.5C54.2849 147.5 54.2849 145.5 54.7849 143.5C55.2849 141.5 57.7849 139.5 60.7849 139.5Z" fill="#08200A"/>
<g filter="url(#filter2_ii)">
<path d="M77.2849 180.5C76.8849 179.7 74.4516 177.833 73.2849 177C80.0849 178.6 82.1182 182.333 82.2849 184C82.9516 183.667 84.4849 182.7 85.2849 181.5C86.2849 183 85.7849 185.5 85.7849 187C87.7849 187 90.7849 183 91.7849 180.5C92.5849 178.5 91.4516 176.667 90.7849 176C87.6182 173.667 78.1849 168.8 65.7849 168C53.3849 167.2 43.9516 173 40.7849 176C40.2849 175.833 39.2849 176.4 39.2849 180C39.2849 183.6 43.6182 186.167 45.7849 187C45.9516 185.667 46.4849 182.7 47.2849 181.5C48.4849 182.7 49.4516 183 49.7849 183C52.4516 181.5 59.1849 178.4 64.7849 178C71.7849 177.5 73.2849 179.5 77.2849 180.5Z" fill="#C4C4C4"/>
</g>
<g filter="url(#filter3_d)">
<path d="M74.7849 128C69.9849 127.2 66.4516 130.333 65.2849 132C59.7849 126.5 54.7849 129.5 51.7849 131C48.7849 132.5 47.7849 133 40.2849 133C45.5909 133 45.7781 130.254 47.5804 129.567C43.1189 130.999 37.7094 130.955 32.7849 128C27.7849 125 31.7849 119.5 32.7849 119C32.2849 118.5 29.7849 117.5 28.2849 119C28.7849 117.5 31.2849 114.5 34.7849 114.5C43.7849 114.5 49.2849 119.5 53.2849 123.5C53.2849 121.1 49.6182 117.5 47.7849 116C48.6182 115.5 51.4849 115.9 56.2849 121.5C62.2849 128.5 64.7849 123 65.2849 121.5C67.7849 128.5 72.7849 125.5 73.7849 123.5C74.7682 121.533 77.6854 119.083 81.5856 116.15C81.6511 116.099 81.7175 116.049 81.7849 116C81.7182 116.05 81.6518 116.1 81.5856 116.15C78.971 118.186 77.9626 121.874 77.7849 123.5C79.1182 122.167 82.0849 119.4 83.2849 119C84.6924 118.531 86.5401 114.98 84.6973 112.479C84.5033 112.312 84.3601 112.15 84.2849 112C84.4391 112.154 84.5762 112.314 84.6973 112.479C85.7928 113.417 88.5106 114.5 89.7849 114.5C98.9849 112.9 101.618 117.167 101.785 119.5C101.285 118.833 99.9849 117.5 98.7849 117.5C102.285 122 99.7849 125 98.7849 126.5C100.285 128 100.785 129.5 101.785 133C97.2849 127.5 86.7849 128 82.7849 129.5C84.2849 131 87.2849 132 89.7849 133C80.2849 133 80.7849 129 74.7849 128Z" fill="#08200A"/>
</g>
<path d="M40.2849 118C43.8849 118.4 48.4516 123.167 50.2849 125.5C48.2849 125.5 43.8849 125.2 42.2849 124C40.2849 122.5 40.2849 120 40.2849 118Z" fill="#D22D54"/>
<path d="M90.2849 123.5C89.0849 125.1 83.4516 125.5 80.7849 125.5C83.5849 121.1 89.2849 118.667 91.7849 118C91.7849 119.167 91.4849 121.9 90.2849 123.5Z" fill="#D22D54"/>
<g filter="url(#filter4_ii)">
<path d="M46.3408 59.1686C26.289 69.2247 23.419 81.2613 24.4905 86.0226C26.5292 95.7964 31.3274 113.897 34.2101 108.108C37.8134 100.872 53.3904 86.231 68.276 83.4965C83.1617 80.7619 111.769 60.415 123.434 52.0344C119.087 54.5137 108.175 56.1331 93.4145 55.9182C78.6538 55.7034 71.4055 46.5986 46.3408 59.1686Z" fill="#08200A"/>
</g>
<g filter="url(#filter5_ii)">
<path d="M53.2849 79.5C30.8849 78.3 22.4283 87.3333 21 92C17.9283 101.5 13.1279 119.6 18.5 116C25.2151 111.5 46 106.5 60.2849 111.5C74.5699 116.5 109.5 113 123.785 111.5C118.781 111.5 108.5 107.5 95.7849 100C83.0699 92.5 81.2849 81 53.2849 79.5Z" fill="#08200A"/>
</g>
<g filter="url(#filter6_d)">
<path d="M108.5 262L91 247.5L102 240L108.5 262Z" fill="#F5FA12"/>
<path d="M108.5 262L91 247.5L98 242.5L108.5 262Z" fill="#D22D54" fill-opacity="0.6"/>
<path d="M22.9845 260.826L29.2951 238.993L40.5621 246.086L22.9845 260.826Z" fill="#F5FA12"/>
<path d="M22.9845 260.826L29.2951 238.993L36.6734 243.416L22.9845 260.826Z" fill="#D22D54" fill-opacity="0.6"/>
<rect x="102.053" y="234.785" width="18" height="14" transform="rotate(150 102.053 234.785)" fill="#373636"/>
<rect x="102.053" y="234.785" width="18" height="14" transform="rotate(150 102.053 234.785)" fill="url(#paint0_linear)" fill-opacity="0.6"/>
<path d="M104.187 240.481L90.3301 248.481L83.0981 239.954L100.419 229.954L104.187 240.481Z" fill="black"/>
<path d="M104.187 240.481L90.3301 248.481L83.0981 239.954L100.419 229.954L104.187 240.481Z" fill="url(#paint1_linear)" fill-opacity="0.4"/>
<path d="M86.1962 239.32L90.5263 236.82L94.5263 243.749L90.1962 246.249L86.1962 239.32Z" fill="black"/>
<path d="M86.1962 239.32L90.5263 236.82L94.5263 243.749L90.1962 246.249L86.1962 239.32Z" fill="url(#paint2_linear)" fill-opacity="0.4"/>
<path d="M93.1244 235.32L97.4545 232.82L101.454 239.749L97.1244 242.249L93.1244 235.32Z" fill="black"/>
<path d="M93.1244 235.32L97.4545 232.82L101.454 239.749L97.1244 242.249L93.1244 235.32Z" fill="url(#paint3_linear)" fill-opacity="0.2"/>
<rect x="100.419" y="229.954" width="20" height="2" transform="rotate(150 100.419 229.954)" fill="black"/>
<rect x="96.4186" y="223.026" width="20" height="2" transform="rotate(150 96.4186 223.026)" fill="black"/>
<path d="M95.4186 221.294L78.0981 231.294L71 225L93.5167 212L95.4186 221.294Z" fill="black"/>
<path d="M95.4186 221.294L78.0981 231.294L71 225L93.5167 212L95.4186 221.294Z" fill="url(#paint4_linear)" fill-opacity="0.4"/>
<rect width="18" height="14" transform="matrix(0.866025 0.5 0.5 -0.866025 28.4641 234.785)" fill="#373636"/>
<rect width="18" height="14" transform="matrix(0.866025 0.5 0.5 -0.866025 28.4641 234.785)" fill="url(#paint5_linear)" fill-opacity="0.6"/>
<path d="M26.3301 240.481L40.1865 248.481L47.4186 239.954L30.0981 229.954L26.3301 240.481Z" fill="black"/>
<path d="M26.3301 240.481L40.1865 248.481L47.4186 239.954L30.0981 229.954L26.3301 240.481Z" fill="url(#paint6_linear)" fill-opacity="0.4"/>
<path d="M44.3205 239.32L39.9904 236.82L35.9904 243.749L40.3205 246.249L44.3205 239.32Z" fill="black"/>
<path d="M44.3205 239.32L39.9904 236.82L35.9904 243.749L40.3205 246.249L44.3205 239.32Z" fill="url(#paint7_linear)" fill-opacity="0.4"/>
<path d="M37.3923 235.32L33.0622 232.82L29.0622 239.749L33.3923 242.249L37.3923 235.32Z" fill="black"/>
<path d="M37.3923 235.32L33.0622 232.82L29.0622 239.749L33.3923 242.249L37.3923 235.32Z" fill="url(#paint8_linear)" fill-opacity="0.2"/>
<rect width="20" height="2" transform="matrix(0.866025 0.5 0.5 -0.866025 30.098 229.954)" fill="black"/>
<rect width="20" height="2" transform="matrix(0.866025 0.5 0.5 -0.866025 34.0981 223.026)" fill="black"/>
<path d="M35.0981 221.294L52.4186 231.294L59.5167 225L37 212L35.0981 221.294Z" fill="black"/>
<path d="M35.0981 221.294L52.4186 231.294L59.5167 225L37 212L35.0981 221.294Z" fill="url(#paint9_linear)" fill-opacity="0.4"/>
<path d="M93 192L99.0001 210L85.0001 224L85.0001 229L80.5001 234L65.0001 238L65 192L93 192Z" fill="black"/>
<path d="M37.5166 192L31.5166 210L45.5166 224L45.5166 229L50.0166 234L65.5166 238L65.5166 192L37.5166 192Z" fill="black"/>
<path d="M93.0001 192L101 210L78.0001 220L79.0001 225L76.5001 229L65.0001 232L65 187L93.0001 192Z" fill="#2B2B2B"/>
<path d="M93.0001 192L101 210L78.0001 220L79.0001 225L76.5001 229L65.0001 232L65 187L93.0001 192Z" fill="white" fill-opacity="0.1"/>
<path d="M93.0001 192L101 210L78.0001 220L79.0001 225L76.5001 229L65.0001 232L65 187L93.0001 192Z" fill="url(#paint10_linear)" fill-opacity="0.6"/>
<path d="M37.5166 192L29.5166 210L52.5166 220L51.5166 225L54.0166 229L65.5166 232L65.5166 187L37.5166 192Z" fill="#2B2B2B"/>
<path d="M37.5166 192L29.5166 210L52.5166 220L51.5166 225L54.0166 229L65.5166 232L65.5166 187L37.5166 192Z" fill="white" fill-opacity="0.1"/>
<path d="M37.5166 192L29.5166 210L52.5166 220L51.5166 225L54.0166 229L65.5166 232L65.5166 187L37.5166 192Z" fill="url(#paint11_linear)" fill-opacity="0.6"/>
<circle cx="65.0001" cy="206" r="14" transform="rotate(180 65.0001 206)" fill="#D22D54"/>
<circle cx="65.0001" cy="206" r="13" transform="rotate(180 65.0001 206)" fill="black"/>
<circle cx="65.0001" cy="206" r="10" transform="rotate(180 65.0001 206)" fill="#2B2B2B"/>
<g filter="url(#filter7_di)">
<circle cx="65.0001" cy="206" r="9" transform="rotate(180 65.0001 206)" fill="white"/>
<circle cx="65.0001" cy="206" r="9" transform="rotate(180 65.0001 206)" fill="url(#paint12_linear)"/>
</g>
</g>
<defs>
<filter id="filter0_ii" x="0" y="0" width="138.285" height="213" filterUnits="userSpaceOnUse" color-interpolation-filters="sRGB">
<feFlood flood-opacity="0" result="BackgroundImageFix"/>
<feBlend mode="normal" in="SourceGraphic" in2="BackgroundImageFix" result="shape"/>
<feColorMatrix in="SourceAlpha" type="matrix" values="0 0 0 0 0 0 0 0 0 0 0 0 0 0 0 0 0 0 127 0" result="hardAlpha"/>
<feOffset dy="7"/>
<feComposite in2="hardAlpha" operator="arithmetic" k2="-1" k3="1"/>
<feColorMatrix type="matrix" values="0 0 0 0 1 0 0 0 0 1 0 0 0 0 1 0 0 0 0.09 0"/>
<feBlend mode="normal" in2="shape" result="effect1_innerShadow"/>
<feColorMatrix in="SourceAlpha" type="matrix" values="0 0 0 0 0 0 0 0 0 0 0 0 0 0 0 0 0 0 127 0" result="hardAlpha"/>
<feOffset dy="-6"/>
<feComposite in2="hardAlpha" operator="arithmetic" k2="-1" k3="1"/>
<feColorMatrix type="matrix" values="0 0 0 0 0 0 0 0 0 0 0 0 0 0 0 0 0 0 0.65 0"/>
<feBlend mode="normal" in2="effect1_innerShadow" result="effect2_innerShadow"/>
</filter>
<filter id="filter1_ii" x="21.7849" y="108.444" width="87.5" height="70.5558" filterUnits="userSpaceOnUse" color-interpolation-filters="sRGB">
<feFlood flood-opacity="0" result="BackgroundImageFix"/>
<feBlend mode="normal" in="SourceGraphic" in2="BackgroundImageFix" result="shape"/>
<feColorMatrix in="SourceAlpha" type="matrix" values="0 0 0 0 0 0 0 0 0 0 0 0 0 0 0 0 0 0 127 0" result="hardAlpha"/>
<feOffset dy="5"/>
<feGaussianBlur stdDeviation="6"/>
<feComposite in2="hardAlpha" operator="arithmetic" k2="-1" k3="1"/>
<feColorMatrix type="matrix" values="0 0 0 0 1 0 0 0 0 1 0 0 0 0 1 0 0 0 1 0"/>
<feBlend mode="normal" in2="shape" result="effect1_innerShadow"/>
<feColorMatrix in="SourceAlpha" type="matrix" values="0 0 0 0 0 0 0 0 0 0 0 0 0 0 0 0 0 0 127 0" result="hardAlpha"/>
<feOffset dy="-5"/>
<feComposite in2="hardAlpha" operator="arithmetic" k2="-1" k3="1"/>
<feColorMatrix type="matrix" values="0 0 0 0 0 0 0 0 0 0 0 0 0 0 0 0 0 0 0.25 0"/>
<feBlend mode="normal" in2="effect1_innerShadow" result="effect2_innerShadow"/>
</filter>
<filter id="filter2_ii" x="39.2849" y="167.925" width="52.7752" height="24.075" filterUnits="userSpaceOnUse" color-interpolation-filters="sRGB">
<feFlood flood-opacity="0" result="BackgroundImageFix"/>
<feBlend mode="normal" in="SourceGraphic" in2="BackgroundImageFix" result="shape"/>
<feColorMatrix in="SourceAlpha" type="matrix" values="0 0 0 0 0 0 0 0 0 0 0 0 0 0 0 0 0 0 127 0" result="hardAlpha"/>
<feOffset dy="5"/>
<feGaussianBlur stdDeviation="6"/>
<feComposite in2="hardAlpha" operator="arithmetic" k2="-1" k3="1"/>
<feColorMatrix type="matrix" values="0 0 0 0 1 0 0 0 0 1 0 0 0 0 1 0 0 0 1 0"/>
<feBlend mode="normal" in2="shape" result="effect1_innerShadow"/>
<feColorMatrix in="SourceAlpha" type="matrix" values="0 0 0 0 0 0 0 0 0 0 0 0 0 0 0 0 0 0 127 0" result="hardAlpha"/>
<feOffset dy="-5"/>
<feComposite in2="hardAlpha" operator="arithmetic" k2="-1" k3="1"/>
<feColorMatrix type="matrix" values="0 0 0 0 0 0 0 0 0 0 0 0 0 0 0 0 0 0 0.25 0"/>
<feBlend mode="normal" in2="effect1_innerShadow" result="effect2_innerShadow"/>
</filter>
<filter id="filter3_d" x="27.2849" y="109" width="75.5" height="24" filterUnits="userSpaceOnUse" color-interpolation-filters="sRGB">
<feFlood flood-opacity="0" result="BackgroundImageFix"/>
<feColorMatrix in="SourceAlpha" type="matrix" values="0 0 0 0 0 0 0 0 0 0 0 0 0 0 0 0 0 0 127 0"/>
<feOffset dy="-2"/>
<feGaussianBlur stdDeviation="0.5"/>
<feColorMatrix type="matrix" values="0 0 0 0 0 0 0 0 0 0 0 0 0 0 0 0 0 0 0.65 0"/>
<feBlend mode="normal" in2="BackgroundImageFix" result="effect1_dropShadow"/>
<feBlend mode="normal" in="SourceGraphic" in2="effect1_dropShadow" result="shape"/>
</filter>
<filter id="filter4_ii" x="13.9671" y="24.1439" width="111.928" height="85.5704" filterUnits="userSpaceOnUse" color-interpolation-filters="sRGB">
<feFlood flood-opacity="0" result="BackgroundImageFix"/>
<feBlend mode="normal" in="SourceGraphic" in2="BackgroundImageFix" result="shape"/>
<feColorMatrix in="SourceAlpha" type="matrix" values="0 0 0 0 0 0 0 0 0 0 0 0 0 0 0 0 0 0 127 0" result="hardAlpha"/>
<feOffset dy="7"/>
<feComposite in2="hardAlpha" operator="arithmetic" k2="-1" k3="1"/>
<feColorMatrix type="matrix" values="0 0 0 0 1 0 0 0 0 1 0 0 0 0 1 0 0 0 0.09 0"/>
<feBlend mode="normal" in2="shape" result="effect1_innerShadow"/>
<feColorMatrix in="SourceAlpha" type="matrix" values="0 0 0 0 0 0 0 0 0 0 0 0 0 0 0 0 0 0 127 0" result="hardAlpha"/>
<feOffset dy="-6"/>
<feComposite in2="hardAlpha" operator="arithmetic" k2="-1" k3="1"/>
<feColorMatrix type="matrix" values="0 0 0 0 0 0 0 0 0 0 0 0 0 0 0 0 0 0 0.65 0"/>
<feBlend mode="normal" in2="effect1_innerShadow" result="effect2_innerShadow"/>
</filter>
<filter id="filter5_ii" x="16.077" y="79.3913" width="107.708" height="37.0756" filterUnits="userSpaceOnUse" color-interpolation-filters="sRGB">
<feFlood flood-opacity="0" result="BackgroundImageFix"/>
<feBlend mode="normal" in="SourceGraphic" in2="BackgroundImageFix" result="shape"/>
<feColorMatrix in="SourceAlpha" type="matrix" values="0 0 0 0 0 0 0 0 0 0 0 0 0 0 0 0 0 0 127 0" result="hardAlpha"/>
<feOffset dy="7"/>
<feComposite in2="hardAlpha" operator="arithmetic" k2="-1" k3="1"/>
<feColorMatrix type="matrix" values="0 0 0 0 1 0 0 0 0 1 0 0 0 0 1 0 0 0 0.09 0"/>
<feBlend mode="normal" in2="shape" result="effect1_innerShadow"/>
<feColorMatrix in="SourceAlpha" type="matrix" values="0 0 0 0 0 0 0 0 0 0 0 0 0 0 0 0 0 0 127 0" result="hardAlpha"/>
<feOffset dy="-6"/>
<feComposite in2="hardAlpha" operator="arithmetic" k2="-1" k3="1"/>
<feColorMatrix type="matrix" values="0 0 0 0 0 0 0 0 0 0 0 0 0 0 0 0 0 0 0.65 0"/>
<feBlend mode="normal" in2="effect1_innerShadow" result="effect2_innerShadow"/>
</filter>
<filter id="filter6_d" x="12" y="183" width="100.5" height="83.0002" filterUnits="userSpaceOnUse" color-interpolation-filters="sRGB">
<feFlood flood-opacity="0" result="BackgroundImageFix"/>
<feColorMatrix in="SourceAlpha" type="matrix" values="0 0 0 0 0 0 0 0 0 0 0 0 0 0 0 0 0 0 127 0"/>
<feOffset/>
<feGaussianBlur stdDeviation="2"/>
<feColorMatrix type="matrix" values="0 0 0 0 0 0 0 0 0 0 0 0 0 0 0 0 0 0 1 0"/>
<feBlend mode="normal" in2="BackgroundImageFix" result="effect1_dropShadow"/>
<feBlend mode="normal" in="SourceGraphic" in2="effect1_dropShadow" result="shape"/>
</filter>
<filter id="filter7_di" x="24.0001" y="165" width="82" height="82" filterUnits="userSpaceOnUse" color-interpolation-filters="sRGB">
<feFlood flood-opacity="0" result="BackgroundImageFix"/>
<feColorMatrix in="SourceAlpha" type="matrix" values="0 0 0 0 0 0 0 0 0 0 0 0 0 0 0 0 0 0 127 0"/>
<feMorphology radius="8" operator="dilate" in="SourceAlpha" result="effect1_dropShadow"/>
<feOffset/>
<feGaussianBlur stdDeviation="12"/>
<feColorMatrix type="matrix" values="0 0 0 0 0.825 0 0 0 0 0.175312 0 0 0 0 0.331238 0 0 0 0.6 0"/>
<feBlend mode="normal" in2="BackgroundImageFix" result="effect1_dropShadow"/>
<feBlend mode="normal" in="SourceGraphic" in2="effect1_dropShadow" result="shape"/>
<feColorMatrix in="SourceAlpha" type="matrix" values="0 0 0 0 0 0 0 0 0 0 0 0 0 0 0 0 0 0 127 0" result="hardAlpha"/>
<feOffset dy="1"/>
<feGaussianBlur stdDeviation="7.5"/>
<feComposite in2="hardAlpha" operator="arithmetic" k2="-1" k3="1"/>
<feColorMatrix type="matrix" values="0 0 0 0 0.825 0 0 0 0 0.175312 0 0 0 0 0.331238 0 0 0 0.8 0"/>
<feBlend mode="normal" in2="shape" result="effect2_innerShadow"/>
</filter>
<linearGradient id="paint0_linear" x1="102.053" y1="241.927" x2="120.053" y2="241.927" gradientUnits="userSpaceOnUse">
<stop stop-color="white" stop-opacity="0"/>
<stop offset="0.28125" stop-color="white" stop-opacity="0.435937"/>
<stop offset="0.333333" stop-color="white" stop-opacity="0.86"/>
<stop offset="0.677083" stop-color="white" stop-opacity="0.86"/>
<stop offset="0.765625" stop-color="white"/>
</linearGradient>
<linearGradient id="paint1_linear" x1="103.112" y1="234.62" x2="85.792" y2="244.62" gradientUnits="userSpaceOnUse">
<stop stop-color="white" stop-opacity="0"/>
<stop offset="1" stop-color="white"/>
</linearGradient>
<linearGradient id="paint2_linear" x1="88.237" y1="242.855" x2="92.5671" y2="240.355" gradientUnits="userSpaceOnUse">
<stop stop-color="white" stop-opacity="0"/>
<stop offset="1" stop-color="white"/>
</linearGradient>
<linearGradient id="paint3_linear" x1="95.1652" y1="238.855" x2="99.4953" y2="236.355" gradientUnits="userSpaceOnUse">
<stop stop-color="white" stop-opacity="0"/>
<stop offset="1" stop-color="white"/>
</linearGradient>
<linearGradient id="paint4_linear" x1="95.7207" y1="215.818" x2="73.2041" y2="228.818" gradientUnits="userSpaceOnUse">
<stop stop-color="white" stop-opacity="0"/>
<stop offset="1" stop-color="white"/>
</linearGradient>
<linearGradient id="paint5_linear" x1="0" y1="7.14286" x2="18" y2="7.14286" gradientUnits="userSpaceOnUse">
<stop stop-color="white" stop-opacity="0"/>
<stop offset="0.28125" stop-color="white" stop-opacity="0.435937"/>
<stop offset="0.333333" stop-color="white" stop-opacity="0.86"/>
<stop offset="0.677083" stop-color="white" stop-opacity="0.86"/>
<stop offset="0.765625" stop-color="white"/>
</linearGradient>
<linearGradient id="paint6_linear" x1="27.4042" y1="234.62" x2="44.7247" y2="244.62" gradientUnits="userSpaceOnUse">
<stop stop-color="white" stop-opacity="0"/>
<stop offset="1" stop-color="white"/>
</linearGradient>
<linearGradient id="paint7_linear" x1="42.2797" y1="242.855" x2="37.9496" y2="240.355" gradientUnits="userSpaceOnUse">
<stop stop-color="white" stop-opacity="0"/>
<stop offset="1" stop-color="white"/>
</linearGradient>
<linearGradient id="paint8_linear" x1="35.3515" y1="238.855" x2="31.0213" y2="236.355" gradientUnits="userSpaceOnUse">
<stop stop-color="white" stop-opacity="0"/>
<stop offset="1" stop-color="white"/>
</linearGradient>
<linearGradient id="paint9_linear" x1="34.7959" y1="215.818" x2="57.3126" y2="228.818" gradientUnits="userSpaceOnUse">
<stop stop-color="white" stop-opacity="0"/>
<stop offset="1" stop-color="white"/>
</linearGradient>
<linearGradient id="paint10_linear" x1="65" y1="215.875" x2="101" y2="215.875" gradientUnits="userSpaceOnUse">
<stop stop-color="white" stop-opacity="0"/>
<stop offset="0.28125" stop-color="white" stop-opacity="0.435937"/>
<stop offset="0.333333" stop-color="white" stop-opacity="0.86"/>
<stop offset="0.677083" stop-color="white" stop-opacity="0.86"/>
<stop offset="0.765625" stop-color="white"/>
</linearGradient>
<linearGradient id="paint11_linear" x1="65.5166" y1="215.875" x2="29.5166" y2="215.875" gradientUnits="userSpaceOnUse">
<stop stop-color="white" stop-opacity="0"/>
<stop offset="0.28125" stop-color="white" stop-opacity="0.435937"/>
<stop offset="0.333333" stop-color="white" stop-opacity="0.86"/>
<stop offset="0.677083" stop-color="white" stop-opacity="0.86"/>
<stop offset="0.765625" stop-color="white"/>
</linearGradient>
<linearGradient id="paint12_linear" x1="65.0001" y1="197" x2="65.0001" y2="215" gradientUnits="userSpaceOnUse">
<stop stop-color="white" stop-opacity="0"/>
<stop offset="1" stop-color="#D22D54"/>
</linearGradient>
</defs>
</svg>
