<svg width="40" height="40" viewBox="0 0 40 40" fill="none" xmlns="http://www.w3.org/2000/svg">
<path d="M14.7699 24.1873L11.3414 35.3293L14.7699 24.1873ZM14.7699 24.1873H9.06326C9.06313 24.1873 9.063 24.1873 9.06286 24.1873C8.66019 24.1874 8.26629 24.0696 7.92977 23.8484C7.59314 23.6272 7.32866 23.3123 7.16897 22.9424C7.00929 22.5726 6.9614 22.1641 7.03121 21.7674C7.10102 21.3707 7.28547 21.0031 7.5618 20.71L24.56 2.64942C24.5601 2.64934 24.5602 2.64926 24.5602 2.64918C24.8791 2.31025 25.3033 2.08912 25.7637 2.02174L25.9082 3.00897L25.7637 2.02174C26.2243 1.95434 26.6941 2.04472 27.0968 2.27819L27.5952 2.56716V2.68472C27.7601 2.86782 27.8919 3.08026 27.983 3.31291C28.153 3.74746 28.1707 4.22683 28.0331 4.67272L24.6047 15.8127H30.3113C30.3114 15.8127 30.3115 15.8127 30.3117 15.8127C30.7143 15.8126 31.1082 15.9304 31.4447 16.1515L30.8956 16.9872L31.4448 16.1515C31.7814 16.3727 32.0459 16.6877 32.2055 17.0575C32.3652 17.4273 32.4131 17.8358 32.3433 18.2325C32.2735 18.6292 32.089 18.9968 31.8127 19.2899L14.8146 37.3505C14.4953 37.69 14.0704 37.9114 13.6092 37.9785L13.4651 36.9889L13.6092 37.9785C13.1479 38.0456 12.6776 37.9546 12.2748 37.7201L12.7777 36.8558L12.2747 37.7201C11.8719 37.4857 11.5604 37.1217 11.3909 36.6876C11.2215 36.2537 11.204 35.7752 11.3412 35.3301L14.7699 24.1873Z" fill="#F5FA12" stroke="black" stroke-width="2"/>
</svg>
