<svg width="40" height="40" viewBox="0 0 40 40" fill="none" xmlns="http://www.w3.org/2000/svg">
<mask id="path-1-outside-1" maskUnits="userSpaceOnUse" x="2.63336" y="10.8889" width="35" height="29" fill="black">
<rect fill="white" x="2.63336" y="10.8889" width="35" height="29"/>
<path d="M34.2556 22.2222H32.2223C32.1114 20.0457 31.6693 17.8988 30.9111 15.8556L32.5334 14.9778C32.7927 14.8378 32.9858 14.6006 33.0702 14.3182C33.1546 14.0359 33.1233 13.7316 32.9834 13.4722C32.8434 13.2129 32.6061 13.0198 32.3238 12.9354C32.0414 12.851 31.7371 12.8823 31.4778 13.0222L28.1445 14.4445H11.9778L8.55558 13.0222C8.29626 12.8823 7.99196 12.851 7.70961 12.9354C7.42726 13.0198 7.19 13.2129 7.05003 13.4722C6.91005 13.7316 6.87883 14.0359 6.96322 14.3182C7.04761 14.6006 7.24071 14.8378 7.50003 14.9778L9.1667 15.8667C8.41111 17.9068 7.96906 20.0496 7.85558 22.2222H5.74447C5.44979 22.2222 5.16717 22.3393 4.9588 22.5477C4.75042 22.756 4.63336 23.0387 4.63336 23.3333C4.63336 23.628 4.75042 23.9106 4.9588 24.119C5.16717 24.3274 5.44979 24.4445 5.74447 24.4445H7.88892C7.99076 26.8377 8.62061 29.1788 9.73336 31.3L7.63336 32.7667C7.49303 32.8392 7.36978 32.9409 7.27184 33.0648C7.17389 33.1888 7.10351 33.3322 7.06539 33.4855C7.02727 33.6389 7.02228 33.7985 7.05075 33.9539C7.07923 34.1093 7.14051 34.2569 7.23052 34.3867C7.32053 34.5165 7.43719 34.6257 7.57273 34.7069C7.70826 34.7881 7.85954 34.8394 8.01649 34.8575C8.17343 34.8756 8.33243 34.86 8.48287 34.8117C8.63331 34.7635 8.77174 34.6838 8.88892 34.5778L10.9334 33.1445C11.9075 34.3441 13.1147 35.3338 14.4821 36.0537C15.8495 36.7737 17.3486 37.209 18.8889 37.3333V16.6667H21.1111V37.3333C22.6498 37.2118 24.1479 36.7799 25.5151 36.0638C26.8824 35.3477 28.0905 34.3622 29.0667 33.1667L31.1111 34.5778C31.2308 34.6617 31.3658 34.7212 31.5084 34.7529C31.6511 34.7847 31.7986 34.788 31.9425 34.7627C32.0865 34.7374 32.224 34.684 32.3473 34.6056C32.4706 34.5272 32.5772 34.4252 32.6611 34.3056C32.745 34.1859 32.8046 34.0509 32.8363 33.9083C32.868 33.7656 32.8713 33.6181 32.846 33.4742C32.8208 33.3303 32.7674 33.1927 32.689 33.0694C32.6105 32.9461 32.5086 32.8395 32.3889 32.7556L30.3223 31.3111C31.4331 29.1858 32.0592 26.8407 32.1556 24.4445H34.2556C34.5503 24.4445 34.8329 24.3274 35.0413 24.119C35.2496 23.9106 35.3667 23.628 35.3667 23.3333C35.3667 23.0387 35.2496 22.756 35.0413 22.5477C34.8329 22.3393 34.5503 22.2222 34.2556 22.2222ZM12.1223 19.7111C12.1223 19.2826 12.2493 18.8637 12.4874 18.5074C12.7255 18.1511 13.0639 17.8734 13.4598 17.7094C13.8557 17.5454 14.2913 17.5025 14.7116 17.5861C15.1319 17.6697 15.518 17.876 15.821 18.1791C16.124 18.4821 16.3304 18.8681 16.414 19.2884C16.4976 19.7087 16.4546 20.1444 16.2907 20.5403C16.1267 20.9362 15.849 21.2746 15.4927 21.5126C15.1363 21.7507 14.7174 21.8778 14.2889 21.8778C13.7143 21.8778 13.1632 21.6495 12.7569 21.2432C12.3505 20.8369 12.1223 20.2858 12.1223 19.7111ZM15.5556 30.5111C15.2084 30.5111 14.8689 30.4082 14.5802 30.2153C14.2916 30.0224 14.0665 29.7482 13.9337 29.4274C13.8008 29.1066 13.766 28.7536 13.8338 28.4131C13.9015 28.0725 14.0687 27.7597 14.3142 27.5142C14.5597 27.2687 14.8725 27.1015 15.2131 27.0337C15.5536 26.966 15.9066 27.0008 16.2274 27.1336C16.5482 27.2665 16.8224 27.4915 17.0153 27.7802C17.2082 28.0689 17.3111 28.4083 17.3111 28.7556C17.3111 29.2212 17.1262 29.6677 16.7969 29.9969C16.4677 30.3262 16.0212 30.5111 15.5556 30.5111ZM24.9223 30.5111C24.5746 30.5133 24.2341 30.4122 23.9439 30.2207C23.6538 30.0291 23.427 29.7557 23.2924 29.4351C23.1579 29.1145 23.1215 28.7612 23.188 28.4199C23.2545 28.0787 23.4208 27.7648 23.6658 27.5182C23.9109 27.2716 24.2237 27.1032 24.5645 27.0346C24.9054 26.966 25.2589 27.0001 25.5804 27.1326C25.9018 27.2652 26.1766 27.4902 26.37 27.7791C26.5634 28.068 26.6667 28.4079 26.6667 28.7556C26.6667 29.2212 26.4817 29.6677 26.1525 29.9969C25.8233 30.3262 25.3767 30.5111 24.9111 30.5111H24.9223ZM26.1778 21.8778C25.7493 21.8778 25.3304 21.7507 24.9741 21.5126C24.6178 21.2746 24.3401 20.9362 24.1761 20.5403C24.0121 20.1444 23.9692 19.7087 24.0528 19.2884C24.1364 18.8681 24.3427 18.4821 24.6457 18.1791C24.9488 17.876 25.3348 17.6697 25.7551 17.5861C26.1754 17.5025 26.611 17.5454 27.007 17.7094C27.4029 17.8734 27.7412 18.1511 27.9793 18.5074C28.2174 18.8637 28.3445 19.2826 28.3445 19.7111C28.3445 20.2858 28.1162 20.8369 27.7099 21.2432C27.3035 21.6495 26.7524 21.8778 26.1778 21.8778Z"/>
</mask>
<path d="M34.2556 22.2222H32.2223C32.1114 20.0457 31.6693 17.8988 30.9111 15.8556L32.5334 14.9778C32.7927 14.8378 32.9858 14.6006 33.0702 14.3182C33.1546 14.0359 33.1233 13.7316 32.9834 13.4722C32.8434 13.2129 32.6061 13.0198 32.3238 12.9354C32.0414 12.851 31.7371 12.8823 31.4778 13.0222L28.1445 14.4445H11.9778L8.55558 13.0222C8.29626 12.8823 7.99196 12.851 7.70961 12.9354C7.42726 13.0198 7.19 13.2129 7.05003 13.4722C6.91005 13.7316 6.87883 14.0359 6.96322 14.3182C7.04761 14.6006 7.24071 14.8378 7.50003 14.9778L9.1667 15.8667C8.41111 17.9068 7.96906 20.0496 7.85558 22.2222H5.74447C5.44979 22.2222 5.16717 22.3393 4.9588 22.5477C4.75042 22.756 4.63336 23.0387 4.63336 23.3333C4.63336 23.628 4.75042 23.9106 4.9588 24.119C5.16717 24.3274 5.44979 24.4445 5.74447 24.4445H7.88892C7.99076 26.8377 8.62061 29.1788 9.73336 31.3L7.63336 32.7667C7.49303 32.8392 7.36978 32.9409 7.27184 33.0648C7.17389 33.1888 7.10351 33.3322 7.06539 33.4855C7.02727 33.6389 7.02228 33.7985 7.05075 33.9539C7.07923 34.1093 7.14051 34.2569 7.23052 34.3867C7.32053 34.5165 7.43719 34.6257 7.57273 34.7069C7.70826 34.7881 7.85954 34.8394 8.01649 34.8575C8.17343 34.8756 8.33243 34.86 8.48287 34.8117C8.63331 34.7635 8.77174 34.6838 8.88892 34.5778L10.9334 33.1445C11.9075 34.3441 13.1147 35.3338 14.4821 36.0537C15.8495 36.7737 17.3486 37.209 18.8889 37.3333V16.6667H21.1111V37.3333C22.6498 37.2118 24.1479 36.7799 25.5151 36.0638C26.8824 35.3477 28.0905 34.3622 29.0667 33.1667L31.1111 34.5778C31.2308 34.6617 31.3658 34.7212 31.5084 34.7529C31.6511 34.7847 31.7986 34.788 31.9425 34.7627C32.0865 34.7374 32.224 34.684 32.3473 34.6056C32.4706 34.5272 32.5772 34.4252 32.6611 34.3056C32.745 34.1859 32.8046 34.0509 32.8363 33.9083C32.868 33.7656 32.8713 33.6181 32.846 33.4742C32.8208 33.3303 32.7674 33.1927 32.689 33.0694C32.6105 32.9461 32.5086 32.8395 32.3889 32.7556L30.3223 31.3111C31.4331 29.1858 32.0592 26.8407 32.1556 24.4445H34.2556C34.5503 24.4445 34.8329 24.3274 35.0413 24.119C35.2496 23.9106 35.3667 23.628 35.3667 23.3333C35.3667 23.0387 35.2496 22.756 35.0413 22.5477C34.8329 22.3393 34.5503 22.2222 34.2556 22.2222ZM12.1223 19.7111C12.1223 19.2826 12.2493 18.8637 12.4874 18.5074C12.7255 18.1511 13.0639 17.8734 13.4598 17.7094C13.8557 17.5454 14.2913 17.5025 14.7116 17.5861C15.1319 17.6697 15.518 17.876 15.821 18.1791C16.124 18.4821 16.3304 18.8681 16.414 19.2884C16.4976 19.7087 16.4546 20.1444 16.2907 20.5403C16.1267 20.9362 15.849 21.2746 15.4927 21.5126C15.1363 21.7507 14.7174 21.8778 14.2889 21.8778C13.7143 21.8778 13.1632 21.6495 12.7569 21.2432C12.3505 20.8369 12.1223 20.2858 12.1223 19.7111ZM15.5556 30.5111C15.2084 30.5111 14.8689 30.4082 14.5802 30.2153C14.2916 30.0224 14.0665 29.7482 13.9337 29.4274C13.8008 29.1066 13.766 28.7536 13.8338 28.4131C13.9015 28.0725 14.0687 27.7597 14.3142 27.5142C14.5597 27.2687 14.8725 27.1015 15.2131 27.0337C15.5536 26.966 15.9066 27.0008 16.2274 27.1336C16.5482 27.2665 16.8224 27.4915 17.0153 27.7802C17.2082 28.0689 17.3111 28.4083 17.3111 28.7556C17.3111 29.2212 17.1262 29.6677 16.7969 29.9969C16.4677 30.3262 16.0212 30.5111 15.5556 30.5111ZM24.9223 30.5111C24.5746 30.5133 24.2341 30.4122 23.9439 30.2207C23.6538 30.0291 23.427 29.7557 23.2924 29.4351C23.1579 29.1145 23.1215 28.7612 23.188 28.4199C23.2545 28.0787 23.4208 27.7648 23.6658 27.5182C23.9109 27.2716 24.2237 27.1032 24.5645 27.0346C24.9054 26.966 25.2589 27.0001 25.5804 27.1326C25.9018 27.2652 26.1766 27.4902 26.37 27.7791C26.5634 28.068 26.6667 28.4079 26.6667 28.7556C26.6667 29.2212 26.4817 29.6677 26.1525 29.9969C25.8233 30.3262 25.3767 30.5111 24.9111 30.5111H24.9223ZM26.1778 21.8778C25.7493 21.8778 25.3304 21.7507 24.9741 21.5126C24.6178 21.2746 24.3401 20.9362 24.1761 20.5403C24.0121 20.1444 23.9692 19.7087 24.0528 19.2884C24.1364 18.8681 24.3427 18.4821 24.6457 18.1791C24.9488 17.876 25.3348 17.6697 25.7551 17.5861C26.1754 17.5025 26.611 17.5454 27.007 17.7094C27.4029 17.8734 27.7412 18.1511 27.9793 18.5074C28.2174 18.8637 28.3445 19.2826 28.3445 19.7111C28.3445 20.2858 28.1162 20.8369 27.7099 21.2432C27.3035 21.6495 26.7524 21.8778 26.1778 21.8778Z" fill="white"/>
<path d="M34.2556 22.2222H32.2223C32.1114 20.0457 31.6693 17.8988 30.9111 15.8556L32.5334 14.9778C32.7927 14.8378 32.9858 14.6006 33.0702 14.3182C33.1546 14.0359 33.1233 13.7316 32.9834 13.4722C32.8434 13.2129 32.6061 13.0198 32.3238 12.9354C32.0414 12.851 31.7371 12.8823 31.4778 13.0222L28.1445 14.4445H11.9778L8.55558 13.0222C8.29626 12.8823 7.99196 12.851 7.70961 12.9354C7.42726 13.0198 7.19 13.2129 7.05003 13.4722C6.91005 13.7316 6.87883 14.0359 6.96322 14.3182C7.04761 14.6006 7.24071 14.8378 7.50003 14.9778L9.1667 15.8667C8.41111 17.9068 7.96906 20.0496 7.85558 22.2222H5.74447C5.44979 22.2222 5.16717 22.3393 4.9588 22.5477C4.75042 22.756 4.63336 23.0387 4.63336 23.3333C4.63336 23.628 4.75042 23.9106 4.9588 24.119C5.16717 24.3274 5.44979 24.4445 5.74447 24.4445H7.88892C7.99076 26.8377 8.62061 29.1788 9.73336 31.3L7.63336 32.7667C7.49303 32.8392 7.36978 32.9409 7.27184 33.0648C7.17389 33.1888 7.10351 33.3322 7.06539 33.4855C7.02727 33.6389 7.02228 33.7985 7.05075 33.9539C7.07923 34.1093 7.14051 34.2569 7.23052 34.3867C7.32053 34.5165 7.43719 34.6257 7.57273 34.7069C7.70826 34.7881 7.85954 34.8394 8.01649 34.8575C8.17343 34.8756 8.33243 34.86 8.48287 34.8117C8.63331 34.7635 8.77174 34.6838 8.88892 34.5778L10.9334 33.1445C11.9075 34.3441 13.1147 35.3338 14.4821 36.0537C15.8495 36.7737 17.3486 37.209 18.8889 37.3333V16.6667H21.1111V37.3333C22.6498 37.2118 24.1479 36.7799 25.5151 36.0638C26.8824 35.3477 28.0905 34.3622 29.0667 33.1667L31.1111 34.5778C31.2308 34.6617 31.3658 34.7212 31.5084 34.7529C31.6511 34.7847 31.7986 34.788 31.9425 34.7627C32.0865 34.7374 32.224 34.684 32.3473 34.6056C32.4706 34.5272 32.5772 34.4252 32.6611 34.3056C32.745 34.1859 32.8046 34.0509 32.8363 33.9083C32.868 33.7656 32.8713 33.6181 32.846 33.4742C32.8208 33.3303 32.7674 33.1927 32.689 33.0694C32.6105 32.9461 32.5086 32.8395 32.3889 32.7556L30.3223 31.3111C31.4331 29.1858 32.0592 26.8407 32.1556 24.4445H34.2556C34.5503 24.4445 34.8329 24.3274 35.0413 24.119C35.2496 23.9106 35.3667 23.628 35.3667 23.3333C35.3667 23.0387 35.2496 22.756 35.0413 22.5477C34.8329 22.3393 34.5503 22.2222 34.2556 22.2222ZM12.1223 19.7111C12.1223 19.2826 12.2493 18.8637 12.4874 18.5074C12.7255 18.1511 13.0639 17.8734 13.4598 17.7094C13.8557 17.5454 14.2913 17.5025 14.7116 17.5861C15.1319 17.6697 15.518 17.876 15.821 18.1791C16.124 18.4821 16.3304 18.8681 16.414 19.2884C16.4976 19.7087 16.4546 20.1444 16.2907 20.5403C16.1267 20.9362 15.849 21.2746 15.4927 21.5126C15.1363 21.7507 14.7174 21.8778 14.2889 21.8778C13.7143 21.8778 13.1632 21.6495 12.7569 21.2432C12.3505 20.8369 12.1223 20.2858 12.1223 19.7111ZM15.5556 30.5111C15.2084 30.5111 14.8689 30.4082 14.5802 30.2153C14.2916 30.0224 14.0665 29.7482 13.9337 29.4274C13.8008 29.1066 13.766 28.7536 13.8338 28.4131C13.9015 28.0725 14.0687 27.7597 14.3142 27.5142C14.5597 27.2687 14.8725 27.1015 15.2131 27.0337C15.5536 26.966 15.9066 27.0008 16.2274 27.1336C16.5482 27.2665 16.8224 27.4915 17.0153 27.7802C17.2082 28.0689 17.3111 28.4083 17.3111 28.7556C17.3111 29.2212 17.1262 29.6677 16.7969 29.9969C16.4677 30.3262 16.0212 30.5111 15.5556 30.5111ZM24.9223 30.5111C24.5746 30.5133 24.2341 30.4122 23.9439 30.2207C23.6538 30.0291 23.427 29.7557 23.2924 29.4351C23.1579 29.1145 23.1215 28.7612 23.188 28.4199C23.2545 28.0787 23.4208 27.7648 23.6658 27.5182C23.9109 27.2716 24.2237 27.1032 24.5645 27.0346C24.9054 26.966 25.2589 27.0001 25.5804 27.1326C25.9018 27.2652 26.1766 27.4902 26.37 27.7791C26.5634 28.068 26.6667 28.4079 26.6667 28.7556C26.6667 29.2212 26.4817 29.6677 26.1525 29.9969C25.8233 30.3262 25.3767 30.5111 24.9111 30.5111H24.9223ZM26.1778 21.8778C25.7493 21.8778 25.3304 21.7507 24.9741 21.5126C24.6178 21.2746 24.3401 20.9362 24.1761 20.5403C24.0121 20.1444 23.9692 19.7087 24.0528 19.2884C24.1364 18.8681 24.3427 18.4821 24.6457 18.1791C24.9488 17.876 25.3348 17.6697 25.7551 17.5861C26.1754 17.5025 26.611 17.5454 27.007 17.7094C27.4029 17.8734 27.7412 18.1511 27.9793 18.5074C28.2174 18.8637 28.3445 19.2826 28.3445 19.7111C28.3445 20.2858 28.1162 20.8369 27.7099 21.2432C27.3035 21.6495 26.7524 21.8778 26.1778 21.8778Z" stroke="black" stroke-width="4" mask="url(#path-1-outside-1)"/>
<path d="M24.2047 3.94677L24.1956 3.95386L24.1868 3.96116C23.888 4.20705 23.6024 4.46832 23.3313 4.74383C22.332 4.17694 21.212 3.84513 20.0568 3.77938L19.9941 3.77581L19.9315 3.78011C18.7672 3.86009 17.6416 4.20789 16.6404 4.7913C16.3607 4.50645 16.0658 4.23657 15.757 3.98287L15.7485 3.97584L15.7397 3.96899C15.3529 3.66526 14.9428 3.39277 14.5133 3.15399C14.3804 2.77544 14.1688 2.42702 13.8901 2.13273L13.1776 2.80739L13.8901 2.13273C13.4844 1.70421 12.9563 1.41137 12.3779 1.29417C11.7995 1.17697 11.199 1.24113 10.6585 1.47789C10.1179 1.71465 9.66359 2.11247 9.35753 2.61704C9.05148 3.12162 8.90861 3.70835 8.94843 4.29714C8.98824 4.88594 9.20881 5.44809 9.58 5.90687C9.9512 6.36564 10.4549 6.69868 11.0225 6.86051C11.59 7.02234 12.1936 7.00507 12.7509 6.81107L12.7725 6.80359L12.7936 6.79513L12.8348 6.77864C12.9251 6.7454 13.0136 6.70767 13.0998 6.66563C13.2158 6.74332 13.3288 6.8254 13.4387 6.91169C13.5303 6.98752 13.6199 7.06555 13.7076 7.14572C12.7682 8.08569 11.9174 9.11112 11.1663 10.2091C10.6918 10.8902 10.7502 11.696 11.1516 12.2878C11.5383 12.8578 12.2092 13.2 12.9444 13.2H27.1555C27.8907 13.2 28.5616 12.8578 28.9484 12.2878C29.3499 11.6958 29.4082 10.8897 28.9332 10.2084C28.1664 9.09166 27.2957 8.05079 26.3334 7.09951C26.4045 7.03529 26.477 6.97249 26.5508 6.91116C26.661 6.82466 26.7743 6.7424 26.8906 6.66455C27.2298 6.82927 27.6003 6.92685 27.9817 6.94891C28.6208 6.98587 29.2539 6.8087 29.781 6.44543C30.3081 6.08215 30.699 5.55351 30.8919 4.94313C31.0848 4.33274 31.0687 3.67547 30.8461 3.07527C30.6235 2.47508 30.2071 1.96623 29.6629 1.62923C29.1186 1.29223 28.4776 1.14631 27.8411 1.21455C27.2046 1.2828 26.609 1.56132 26.1486 2.00605C25.8217 2.32175 25.5762 2.70842 25.429 3.13293C25.0003 3.37144 24.5909 3.64353 24.2047 3.94677Z" fill="white" stroke="black" stroke-width="2"/>
</svg>
