<svg width="82" height="167" viewBox="0 0 82 167" fill="none" xmlns="http://www.w3.org/2000/svg">
<mask id="path-1-outside-1" maskUnits="userSpaceOnUse" x="11" y="0" width="60" height="156" fill="black">
<rect fill="white" x="11" width="60" height="156"/>
<path fill-rule="evenodd" clip-rule="evenodd" d="M31 2H51V35V37H49V62H51V64H54V89H56.5L61 94L61 116L69 128V130V148L41 153L13 148V130V128L21 116L21 94L25.5 89H28V64H31V62H33V37H31V35V2Z"/>
</mask>
<path d="M51 2H53V0H51V2ZM31 2V0H29V2H31ZM51 37V39H53V37H51ZM49 37V35H47V37H49ZM49 62H47V64H49V62ZM51 62H53V60H51V62ZM51 64H49V66H51V64ZM54 64H56V62H54V64ZM54 89H52V91H54V89ZM56.5 89L57.9866 87.6621L57.3907 87H56.5V89ZM61 94H63V93.2325L62.4866 92.6621L61 94ZM61 116H59V116.606L59.3359 117.109L61 116ZM69 128H71V127.394L70.6641 126.891L69 128ZM69 148L69.3516 149.969L71 149.674V148H69ZM41 153L40.6484 154.969L41 155.032L41.3516 154.969L41 153ZM13 148H11V149.674L12.6484 149.969L13 148ZM13 128L11.3359 126.891L11 127.394V128H13ZM21 116L22.6641 117.109L23 116.606L23 116H21ZM21 94L19.5134 92.6621L19 93.2325V94H21ZM25.5 89V87H24.6093L24.0134 87.6621L25.5 89ZM28 89V91H30V89H28ZM28 64V62H26V64H28ZM31 64V66H33V64H31ZM31 62V60H29V62H31ZM33 62V64H35V62H33ZM33 37H35V35H33V37ZM31 37H29V39H31V37ZM51 0H31V4H51V0ZM53 35V2H49V35H53ZM53 37V35H49V37H53ZM49 39H51V35H49V39ZM51 62V37H47V62H51ZM51 60H49V64H51V60ZM53 64V62H49V64H53ZM54 62H51V66H54V62ZM56 89V64H52V89H56ZM56.5 87H54V91H56.5V87ZM62.4866 92.6621L57.9866 87.6621L55.0134 90.3379L59.5134 95.3379L62.4866 92.6621ZM63 116L63 94H59L59 116H63ZM70.6641 126.891L62.6641 114.891L59.3359 117.109L67.3359 129.109L70.6641 126.891ZM71 130V128H67V130H71ZM71 148V130H67V148H71ZM41.3516 154.969L69.3516 149.969L68.6484 146.031L40.6484 151.031L41.3516 154.969ZM12.6484 149.969L40.6484 154.969L41.3516 151.031L13.3516 146.031L12.6484 149.969ZM11 130V148H15V130H11ZM11 128V130H15V128H11ZM19.3359 114.891L11.3359 126.891L14.6641 129.109L22.6641 117.109L19.3359 114.891ZM19 94L19 116H23L23 94H19ZM24.0134 87.6621L19.5134 92.6621L22.4866 95.3379L26.9866 90.3379L24.0134 87.6621ZM28 87H25.5V91H28V87ZM26 64V89H30V64H26ZM31 62H28V66H31V62ZM29 62V64H33V62H29ZM33 60H31V64H33V60ZM31 37V62H35V37H31ZM31 39H33V35H31V39ZM29 35V37H33V35H29ZM29 2V35H33V2H29Z" fill="black" mask="url(#path-1-outside-1)"/>
<rect x="33" y="30" width="16" height="49" fill="#373636"/>
<rect x="33" y="30" width="16" height="49" fill="url(#paint0_linear)" fill-opacity="0.6"/>
<rect x="31" y="2" width="20" height="33" fill="black"/>
<rect x="31" y="2" width="20" height="33" fill="url(#paint1_linear)" fill-opacity="0.4"/>
<path d="M48 31L43 31L43 8L48 8L48 31Z" fill="black"/>
<path d="M48 31L43 31L43 8L48 8L48 31Z" fill="url(#paint2_linear)" fill-opacity="0.4"/>
<path d="M40 31L35 31L35 8L40 8L40 31Z" fill="black"/>
<path d="M40 31L35 31L35 8L40 8L40 31Z" fill="url(#paint3_linear)" fill-opacity="0.2"/>
<rect x="31" y="35" width="20" height="2" fill="black"/>
<rect x="31" y="62" width="20" height="2" fill="black"/>
<rect x="28" y="64" width="26" height="49" fill="black"/>
<rect x="28" y="64" width="26" height="49" fill="url(#paint4_linear)" fill-opacity="0.4"/>
<path d="M13 148L13 128L21 116L21 94L25.5 89L41 89L41 148L13 148Z" fill="black"/>
<path d="M69 148L69 128L61 116L61 94L56.5 89L41 89L41 148L69 148Z" fill="black"/>
<path d="M69 148L69 128L61 116L61 94L56.5 89L41 89L41 148L69 148Z" fill="white" fill-opacity="0.1"/>
<path d="M13 148L13 130L28 120L27 100L29.5 96L41 93L41 153L13 148Z" fill="#2B2B2B"/>
<path d="M69 148L69 130L54 120L55 100L52.5 96L41 93L41 153L69 148Z" fill="#2B2B2B"/>
<path d="M69 148L69 130L54 120L55 100L52.5 96L41 93L41 153L69 148Z" fill="white" fill-opacity="0.1"/>
<path d="M69 148L69 130L54 120L55 100L52.5 96L41 93L41 153L69 148Z" fill="url(#paint5_linear)" fill-opacity="0.6"/>
<circle cx="41" cy="126" r="14" fill="#BFF91B"/>
<circle cx="41" cy="126" r="13" fill="black"/>
<circle cx="41" cy="126" r="10" fill="#2B2B2B"/>
<g filter="url(#filter0_di)">
<circle cx="41" cy="126" r="9" fill="black"/>
<circle cx="41" cy="126" r="9" fill="url(#paint6_linear)"/>
</g>
<defs>
<filter id="filter0_di" x="1.90735e-06" y="85" width="82" height="82" filterUnits="userSpaceOnUse" color-interpolation-filters="sRGB">
<feFlood flood-opacity="0" result="BackgroundImageFix"/>
<feColorMatrix in="SourceAlpha" type="matrix" values="0 0 0 0 0 0 0 0 0 0 0 0 0 0 0 0 0 0 127 0"/>
<feMorphology radius="8" operator="dilate" in="SourceAlpha" result="effect1_dropShadow"/>
<feOffset/>
<feGaussianBlur stdDeviation="12"/>
<feColorMatrix type="matrix" values="0 0 0 0 0.748963 0 0 0 0 0.975 0 0 0 0 0.105625 0 0 0 0.3 0"/>
<feBlend mode="normal" in2="BackgroundImageFix" result="effect1_dropShadow"/>
<feBlend mode="normal" in="SourceGraphic" in2="effect1_dropShadow" result="shape"/>
<feColorMatrix in="SourceAlpha" type="matrix" values="0 0 0 0 0 0 0 0 0 0 0 0 0 0 0 0 0 0 127 0" result="hardAlpha"/>
<feOffset dy="1"/>
<feGaussianBlur stdDeviation="7.5"/>
<feComposite in2="hardAlpha" operator="arithmetic" k2="-1" k3="1"/>
<feColorMatrix type="matrix" values="0 0 0 0 0.748963 0 0 0 0 0.975 0 0 0 0 0.105625 0 0 0 1 0"/>
<feBlend mode="normal" in2="shape" result="effect2_innerShadow"/>
</filter>
<linearGradient id="paint0_linear" x1="33" y1="55" x2="49" y2="55" gradientUnits="userSpaceOnUse">
<stop stop-color="white" stop-opacity="0"/>
<stop offset="0.28125" stop-color="white" stop-opacity="0.435937"/>
<stop offset="0.333333" stop-color="white" stop-opacity="0.86"/>
<stop offset="0.677083" stop-color="white" stop-opacity="0.86"/>
<stop offset="0.765625" stop-color="white"/>
</linearGradient>
<linearGradient id="paint1_linear" x1="31" y1="18.8367" x2="51" y2="18.8367" gradientUnits="userSpaceOnUse">
<stop stop-color="white" stop-opacity="0"/>
<stop offset="1" stop-color="white"/>
</linearGradient>
<linearGradient id="paint2_linear" x1="48" y1="19.2653" x2="43" y2="19.2653" gradientUnits="userSpaceOnUse">
<stop stop-color="white" stop-opacity="0"/>
<stop offset="1" stop-color="white"/>
</linearGradient>
<linearGradient id="paint3_linear" x1="40" y1="19.2653" x2="35" y2="19.2653" gradientUnits="userSpaceOnUse">
<stop stop-color="white" stop-opacity="0"/>
<stop offset="1" stop-color="white"/>
</linearGradient>
<linearGradient id="paint4_linear" x1="28" y1="89" x2="54" y2="89" gradientUnits="userSpaceOnUse">
<stop stop-color="white" stop-opacity="0"/>
<stop offset="1" stop-color="white"/>
</linearGradient>
<linearGradient id="paint5_linear" x1="41" y1="114.5" x2="69" y2="114.5" gradientUnits="userSpaceOnUse">
<stop stop-color="white" stop-opacity="0"/>
<stop offset="0.28125" stop-color="white" stop-opacity="0.435937"/>
<stop offset="0.333333" stop-color="white" stop-opacity="0.86"/>
<stop offset="0.677083" stop-color="white" stop-opacity="0.86"/>
<stop offset="0.765625" stop-color="white"/>
</linearGradient>
<linearGradient id="paint6_linear" x1="41" y1="117" x2="41" y2="135" gradientUnits="userSpaceOnUse">
<stop stop-color="#BFF91B"/>
<stop offset="1" stop-color="white" stop-opacity="0"/>
</linearGradient>
</defs>
</svg>
